<?xml version="1.0" encoding="utf-8"?>
<!-- Generator: Adobe Illustrator 28.0.0, SVG Export Plug-In . SVG Version: 6.00 Build 0)  -->
<svg version="1.1" id="Layer_1" xmlns="http://www.w3.org/2000/svg" xmlns:xlink="http://www.w3.org/1999/xlink" x="0px" y="0px"
	 viewBox="0 0 1920 1080" style="enable-background:new 0 0 1920 1080;" xml:space="preserve">
<style type="text/css">
	.st0{opacity:3.000000e-02;}
	.st1{fill-rule:evenodd;clip-rule:evenodd;}
	.st2{fill-rule:evenodd;clip-rule:evenodd;fill:#1A1918;}
	.st3{fill:none;stroke:#000000;stroke-width:7.3262;stroke-miterlimit:213.3333;}
</style>
<g class="st0">
	<path d="M628.2,517.8h41.5v3.3H632V546h35.5v3.3H632v27.2h38.1v3.3h-41.9L628.2,517.8L628.2,517.8z M673.4,517.8h4.4l19.6,27.2
		l20-27.2l27.2-34.6L699.9,548l23,31.8h-4.6l-20.9-29l-21,29h-4.5L695,548L673.4,517.8z M724.5,521.2v-3.3h47.3v3.3H750v58.7h-3.8
		v-58.7H724.5L724.5,521.2z M576.3,517.8h4.8l65.5,98.1l-27.1-36.1l-39.2-57.3l-0.2,57.3h-3.8V517.8L576.3,517.8z M771.4,575.5
		c-0.8,0-1.3-0.6-1.3-1.3c0-0.8,0.6-1.3,1.3-1.3c0.8,0,1.3,0.6,1.3,1.3S772.2,575.5,771.4,575.5z M775.2,571.9h2
		c0,1.1,0.8,1.8,2,1.8c1.3,0,2.1-0.8,2.1-2.3v-9.4h2.1v9.4c0,2.7-1.6,4.2-4.1,4.2C776.8,575.7,775.2,574.2,775.2,571.9z M786,571.8
		h2c0.2,1.3,1.4,2.1,3.2,2.1c1.7,0,2.9-0.9,2.9-2c0-1-0.8-1.6-2.6-2l-1.8-0.4c-2.4-0.5-3.5-1.8-3.5-3.7c0-2.4,2-4,4.9-4
		c2.7,0,4.7,1.6,4.8,3.8h-2c-0.2-1.2-1.3-2-2.8-2c-1.6,0-2.7,0.8-2.7,2c0,0.9,0.7,1.5,2.4,1.9l1.5,0.3c2.8,0.6,3.8,1.8,3.8,3.8
		c0,2.6-2,4.2-5.1,4.2C788.2,575.7,786.3,574.2,786,571.8z"/>
</g>
<path class="st0" d="M1813.9,294.3H1732c-1.4,0-2.5-1.1-2.5-2.5v-42.2c0-1.4,1.1-2.5,2.5-2.5h81.9c1.4,0,2.5,1.1,2.5,2.5v42.2
	C1816.4,293.2,1815.3,294.3,1813.9,294.3z M1734.5,289.3h77v-37.2h-77V289.3z"/>
<path class="st0" d="M1741.9,262c-0.3,0-0.6-0.1-1-0.2c-0.3-0.1-0.6-0.3-0.8-0.5c-1-1-1-2.5,0-3.5l0,0c0.2-0.2,0.5-0.4,0.8-0.5
	c0.6-0.3,1.3-0.3,1.9,0c0.3,0.1,0.6,0.3,0.8,0.5c0.5,0.5,0.7,1.1,0.7,1.8c0,0.7-0.3,1.3-0.7,1.8c-0.2,0.2-0.5,0.4-0.8,0.5
	C1742.6,261.9,1742.2,262,1741.9,262z"/>
<path class="st0" d="M1751.9,262c-0.3,0-0.6-0.1-1-0.2c-0.3-0.1-0.6-0.3-0.8-0.5c-0.5-0.5-0.7-1.1-0.7-1.8c0-0.7,0.3-1.3,0.7-1.8
	c0.2-0.2,0.5-0.4,0.8-0.5c0.6-0.3,1.3-0.3,1.9,0c0.3,0.1,0.6,0.3,0.8,0.5c1,1,1,2.5,0,3.5l0,0c-0.2,0.2-0.5,0.4-0.8,0.5
	C1752.5,261.9,1752.2,262,1751.9,262z"/>
<path class="st0" d="M1761.8,262c-0.3,0-0.6-0.1-1-0.2c-0.3-0.1-0.6-0.3-0.8-0.5c-1-1-1-2.5,0-3.5l0,0c0.2-0.2,0.5-0.4,0.8-0.5
	c0.6-0.3,1.3-0.3,1.9,0c0.3,0.1,0.6,0.3,0.8,0.5c1,1,1,2.5,0,3.5l0,0c-0.2,0.2-0.5,0.4-0.8,0.5S1762.1,262,1761.8,262z"/>
<path class="st0" d="M1771.7,262c-1.4,0-2.5-1.1-2.5-2.5s1.1-2.5,2.5-2.5s2.5,1.1,2.5,2.5S1773.1,262,1771.7,262z"/>
<path class="st0" d="M1781.6,262c-0.7,0-1.3-0.3-1.8-0.7c-1-1-1-2.5,0-3.5s2.5-1,3.5,0s1,2.5,0,3.5
	C1782.9,261.8,1782.3,262,1781.6,262z"/>
<path class="st0" d="M1791.6,262c-1.4,0-2.5-1.1-2.5-2.5c0-0.7,0.3-1.3,0.7-1.8l0.4-0.3l0.5-0.2c0.1-0.1,0.3-0.2,0.4-0.2
	c0.3-0.1,0.7-0.1,1,0c0.2,0,0.3,0.1,0.4,0.2l0.4,0.2l0.4,0.3c1,0.9,1.1,2.5,0.1,3.5C1793,261.8,1792.3,262,1791.6,262z"/>
<path class="st0" d="M1801.5,262c-0.7,0-1.3-0.3-1.8-0.7c-0.5-0.5-0.7-1.1-0.7-1.8c0-0.7,0.3-1.3,0.7-1.8c0.6-0.6,1.4-0.9,2.3-0.7
	c0.2,0,0.3,0.1,0.4,0.2l0.4,0.2l0.4,0.3c1,1,1,2.5,0,3.5l0,0C1802.8,261.7,1802.2,262,1801.5,262z"/>
<path class="st0" d="M1751.9,269.5c-0.3,0-0.6-0.1-1-0.2c-0.3-0.1-0.6-0.3-0.8-0.5l-0.3-0.4c-0.1-0.1-0.2-0.3-0.2-0.5
	c-0.1-0.1-0.2-0.3-0.2-0.4c0-0.2,0-0.3,0-0.5c0-0.2,0-0.3,0-0.5c0-0.2,0.1-0.3,0.2-0.4c0.1-0.2,0.1-0.3,0.2-0.4l0.3-0.4
	c0.2-0.2,0.5-0.4,0.8-0.5c0.6-0.3,1.3-0.3,1.9,0c0.3,0.1,0.6,0.3,0.8,0.5c0.1,0.1,0.2,0.2,0.3,0.4c0.1,0.1,0.2,0.3,0.2,0.4
	c0.1,0.1,0.1,0.3,0.2,0.4c0,0.2,0,0.3,0,0.5c0,0.2,0,0.3,0,0.5c0,0.2-0.1,0.3-0.2,0.4c-0.1,0.2-0.1,0.3-0.2,0.4
	c-0.1,0.1-0.2,0.3-0.3,0.4c-0.2,0.2-0.5,0.4-0.8,0.5C1752.5,269.4,1752.2,269.5,1751.9,269.5z"/>
<path class="st0" d="M1761.8,269.5c-0.7,0-1.3-0.3-1.8-0.7c-0.1-0.1-0.2-0.2-0.3-0.4c-0.1-0.1-0.2-0.3-0.2-0.5
	c-0.1-0.1-0.2-0.3-0.2-0.4c0-0.2,0-0.3,0-0.5c0-0.2,0-0.3,0-0.5c0-0.2,0.1-0.3,0.2-0.4c0.1-0.2,0.1-0.3,0.2-0.4s0.2-0.3,0.3-0.4
	c0.7-0.7,1.8-0.9,2.7-0.5c0.3,0.1,0.6,0.3,0.8,0.5l0.3,0.4c0.1,0.1,0.2,0.3,0.2,0.4c0.1,0.1,0.1,0.3,0.2,0.4c0,0.2,0,0.3,0,0.5
	c0,0.2,0,0.3,0,0.5c0,0.2-0.1,0.3-0.2,0.4c-0.1,0.2-0.1,0.3-0.2,0.4l-0.3,0.4c-0.2,0.2-0.5,0.4-0.8,0.5
	C1762.4,269.4,1762.1,269.5,1761.8,269.5z"/>
<path class="st0" d="M1771.7,269.5c-0.7,0-1.3-0.3-1.8-0.7c-1-1-1-2.5,0-3.5l0,0c1-1,2.5-1,3.5,0l0,0c1,1,1,2.5,0,3.5l0,0
	C1773,269.2,1772.4,269.5,1771.7,269.5z"/>
<path class="st0" d="M1781.6,269.5c-0.7,0-1.3-0.3-1.8-0.7l-0.3-0.4c-0.1-0.1-0.2-0.3-0.2-0.5c-0.1-0.1-0.2-0.3-0.2-0.4
	c0-0.2,0-0.3,0-0.5c0-0.7,0.3-1.3,0.7-1.8c0.6-0.6,1.4-0.9,2.3-0.7c0.2,0,0.3,0.1,0.4,0.2l0.4,0.2l0.4,0.3c0.5,0.5,0.7,1.1,0.7,1.8
	c0,0.2,0,0.3,0,0.5c0,0.2-0.1,0.3-0.2,0.4c-0.1,0.2-0.1,0.3-0.2,0.4l-0.3,0.4l-0.4,0.3l-0.4,0.2c-0.1,0.1-0.3,0.1-0.5,0.2
	L1781.6,269.5z"/>
<path class="st0" d="M1791.6,269.5c-0.7,0-1.3-0.3-1.8-0.7l-0.3-0.4c-0.1-0.1-0.2-0.3-0.2-0.5c-0.1-0.1-0.2-0.3-0.2-0.4
	c0-0.2,0-0.3,0-0.5c0-1.4,1.1-2.5,2.5-2.5s2.5,1.1,2.5,2.5c0,0.2,0,0.3,0,0.5c0,0.2-0.1,0.3-0.2,0.4c-0.1,0.2-0.1,0.3-0.2,0.4
	l-0.3,0.4C1792.9,269.2,1792.3,269.5,1791.6,269.5z"/>
<path class="st0" d="M1751.9,276.9c-1.4,0-2.5-1.1-2.5-2.5c0-0.3,0.1-0.6,0.2-1c0.1-0.3,0.3-0.6,0.5-0.8c0.7-0.7,1.8-0.9,2.7-0.5
	c0.6,0.2,1.1,0.7,1.4,1.4c0.1,0.3,0.2,0.6,0.2,1c0,0.2,0,0.3,0,0.5c0,0.2-0.1,0.3-0.2,0.5c-0.1,0.2-0.1,0.3-0.2,0.5
	c-0.1,0.1-0.2,0.3-0.3,0.4c-0.2,0.2-0.5,0.4-0.8,0.5C1752.5,276.9,1752.2,276.9,1751.9,276.9z"/>
<path class="st0" d="M1761.8,276.9h-0.5c-0.2,0-0.3-0.1-0.4-0.2l-0.5-0.2l-0.4-0.3c-0.5-0.5-0.7-1.1-0.7-1.8c0-0.3,0.1-0.6,0.2-1
	c0.4-1.1,1.6-1.8,2.8-1.5c0.2,0,0.3,0.1,0.4,0.2l0.5,0.2l0.4,0.3c0.2,0.2,0.4,0.5,0.5,0.8c0.1,0.3,0.2,0.7,0.2,1
	c0,0.7-0.3,1.3-0.7,1.8l-0.4,0.3l-0.4,0.2c-0.1,0.1-0.3,0.1-0.4,0.2H1761.8z"/>
<path class="st0" d="M1771.7,276.9c-0.3,0-0.7-0.1-1-0.2c-0.3-0.1-0.6-0.3-0.8-0.5c-0.5-0.5-0.7-1.1-0.7-1.8c0-0.3,0.1-0.6,0.2-1
	c0.1-0.3,0.3-0.6,0.5-0.8c0.2-0.2,0.5-0.4,0.8-0.5c0.6-0.3,1.3-0.3,1.9,0c0.6,0.2,1.1,0.7,1.4,1.4c0.1,0.3,0.2,0.6,0.2,1
	c0,0.2,0,0.3,0,0.5c0,0.2-0.1,0.3-0.2,0.5c-0.1,0.2-0.1,0.3-0.2,0.5c-0.1,0.1-0.2,0.3-0.3,0.4c-0.2,0.2-0.5,0.4-0.8,0.5
	C1772.4,276.9,1772.1,276.9,1771.7,276.9z"/>
<path class="st0" d="M1781.6,276.9h-0.5c-0.2,0-0.3-0.1-0.4-0.2l-0.4-0.2l-0.4-0.3c-0.5-0.5-0.7-1.1-0.7-1.8c0-0.3,0.1-0.6,0.2-1
	c0.4-1.1,1.6-1.8,2.8-1.5c0.2,0,0.3,0.1,0.4,0.2l0.4,0.2l0.4,0.3c0.2,0.2,0.4,0.5,0.5,0.8c0.1,0.3,0.2,0.7,0.2,1
	c0,0.7-0.3,1.3-0.7,1.8l-0.4,0.3l-0.5,0.2c-0.1,0.1-0.3,0.1-0.4,0.2H1781.6z"/>
<path class="st0" d="M1741.9,284.4c-0.7,0-1.3-0.3-1.8-0.7c-0.2-0.2-0.4-0.5-0.5-0.8s-0.2-0.6-0.2-0.9c0-0.7,0.3-1.3,0.7-1.8
	c0.7-0.7,1.8-0.9,2.7-0.5c0.3,0.1,0.6,0.3,0.8,0.5l0.3,0.4c0.1,0.1,0.2,0.3,0.2,0.4c0.1,0.1,0.1,0.3,0.2,0.4c0,0.2,0,0.3,0,0.5
	c0,0.3-0.1,0.6-0.2,1c-0.1,0.3-0.3,0.6-0.5,0.8C1743.2,284.1,1742.6,284.3,1741.9,284.4z"/>
<path class="st0" d="M1791.6,284.4h-0.5c-0.2,0-0.3-0.1-0.4-0.2c-0.2,0-0.3-0.1-0.4-0.2s-0.3-0.2-0.4-0.3c-0.2-0.2-0.4-0.5-0.5-0.8
	s-0.2-0.7-0.2-1c0-0.7,0.3-1.3,0.7-1.8c0.7-0.7,1.8-0.9,2.7-0.5c0.3,0.1,0.6,0.3,0.8,0.5c0.1,0.1,0.2,0.3,0.3,0.4
	c0.1,0.1,0.2,0.3,0.2,0.4c0.1,0.1,0.1,0.3,0.2,0.4c0,0.2,0,0.3,0,0.5c0,0.3-0.1,0.7-0.2,1c-0.2,0.6-0.7,1.1-1.4,1.4
	C1792.2,284.3,1791.9,284.3,1791.6,284.4z"/>
<path class="st0" d="M1801.5,284.4c-0.3,0-0.6-0.1-1-0.2c-0.6-0.2-1.1-0.7-1.4-1.4c-0.1-0.3-0.2-0.6-0.2-0.9c0-0.2,0-0.3,0-0.5
	c0-0.2,0.1-0.3,0.2-0.4c0-0.2,0.1-0.3,0.2-0.4s0.2-0.3,0.3-0.4c0.2-0.2,0.5-0.4,0.8-0.5c0.9-0.4,2-0.2,2.7,0.5
	c0.5,0.5,0.8,1.1,0.8,1.8c0,0.3-0.1,0.6-0.2,1c-0.1,0.3-0.3,0.6-0.5,0.8c-0.1,0.1-0.3,0.2-0.4,0.3c-0.1,0.1-0.3,0.2-0.4,0.2
	c-0.1,0.1-0.3,0.1-0.4,0.2L1801.5,284.4z"/>
<path class="st0" d="M1801.5,276.9h-9.9c-1.4,0-2.5-1.1-2.5-2.5s1.1-2.5,2.5-2.5h7.4v-5c0-1.4,1.1-2.5,2.5-2.5s2.5,1.1,2.5,2.5v7.4
	C1804,275.8,1802.9,276.9,1801.5,276.9z"/>
<path class="st0" d="M1781.6,284.4h-29.8c-1.4,0-2.5-1.1-2.5-2.5s1.1-2.5,2.5-2.5h29.8c1.4,0,2.5,1.1,2.5,2.5
	S1783,284.4,1781.6,284.4z"/>
<path class="st0" d="M1741.9,276.9c-1.4,0-2.5-1.1-2.5-2.5V267c0-1.4,1.1-2.5,2.5-2.5s2.5,1.1,2.5,2.5v7.4
	C1744.4,275.8,1743.3,276.9,1741.9,276.9z"/>
<path class="st0" d="M1801.5,252.1h-9.9c-1.4,0-2.5-1.1-2.5-2.5v-5c0-4.1,3.3-7.4,7.4-7.4s7.4,3.3,7.4,7.4v5
	C1804,251,1802.9,252.1,1801.5,252.1z M1794.1,247.1h5v-2.5c0-1.4-1.1-2.5-2.5-2.5s-2.5,1.1-2.5,2.5V247.1z"/>
<path class="st0" d="M1796.5,242.2c-1.4,0-2.5-1.1-2.5-2.5v-2.5c0-8.2,6.7-14.9,14.9-14.9c1.4,0,2.5,1.1,2.5,2.5s-1.1,2.5-2.5,2.5
	c-5.5,0-9.9,4.4-9.9,9.9v2.5C1799,241,1797.9,242.2,1796.5,242.2z"/>
<path class="st0" d="M1721.5,282.1c-4.9,0-9.4-2.9-11.3-7.4l-31.4-70.2c-2.8-6.3,0-13.6,6.3-16.4l0,0l51.9-23.2
	c1.2-0.6,2.7-0.2,3.4,1c0.6,1.2,0.2,2.7-1,3.4c-0.1,0-0.2,0.1-0.3,0.1l-51.9,23.2c-3.8,1.6-5.5,6-3.8,9.8c0,0,0,0.1,0.1,0.1
	l31.3,70.2c1.3,2.8,4.1,4.6,7.2,4.4c1.4-0.1,2.5,1,2.6,2.3c0.1,1.4-1,2.5-2.3,2.6L1721.5,282.1z"/>
<path class="st0" d="M1717.4,223.6c-0.3,0-0.6-0.1-0.9-0.2l-14.7-5.6c-0.6-0.2-1.1-0.7-1.4-1.3s-0.3-1.3,0-1.9l7.1-18.6
	c0.4-1.3,1.8-2,3.1-1.6c1.3,0.4,2,1.8,1.6,3.1c0,0.1-0.1,0.2-0.1,0.3l-6.3,16.2l12.4,4.7c1.3,0.5,1.9,1.9,1.4,3.2
	C1719.3,223,1718.4,223.6,1717.4,223.6L1717.4,223.6z"/>
<path class="st0" d="M1726.2,200.6c-1.2,0-2.3-0.9-2.5-2.1l-2.1-13.9c-0.2-1.4,0.7-2.6,2.1-2.9c1.4-0.2,2.6,0.7,2.9,2.1l2.1,13.9
	c0.2,1.4-0.7,2.6-2.1,2.8l0,0L1726.2,200.6z"/>
<path class="st0" d="M1722.1,253.5c-0.3,0-0.6-0.1-0.9-0.2l-4.8-1.8c-6.4-2.5-9.6-9.6-7.1-16l27.5-72c2.4-6.4,9.6-9.6,16-7.2l0,0
	l55.7,21.3c6.4,2.4,9.6,9.6,7.2,16l-8.6,22.3c-0.6,1.2-2.1,1.8-3.3,1.2c-1.1-0.5-1.7-1.8-1.3-3l8.6-22.3c1.5-3.9-0.5-8.1-4.3-9.6
	l0,0l-55.7-21.2c-3.8-1.5-8.1,0.5-9.6,4.3l0,0l-27.5,71.8c-1.5,3.8,0.5,8.1,4.3,9.6l4.8,1.8c1.3,0.5,1.9,1.9,1.4,3.2
	C1724,252.8,1723.1,253.5,1722.1,253.5z"/>
<path class="st0" d="M1746.6,219.7c-1,0-1.9-0.6-2.3-1.5l-8.1-18.1c-0.6-1.3,0-2.7,1.2-3.3l0,0l18.2-8.1c1.3-0.6,2.7,0,3.3,1.3
	c0.6,1.3,0,2.7-1.3,3.3l-15.9,7.1l7.1,15.9c0.6,1.3,0,2.7-1.3,3.3l0,0C1747.3,219.6,1746.9,219.7,1746.6,219.7z"/>
<path class="st0" d="M1771,229c-1.4,0-2.5-1.1-2.5-2.4c0-1,0.6-1.9,1.5-2.3l15.9-7.1l-7.1-15.9c-0.6-1.3,0-2.7,1.3-3.3
	s2.7,0,3.3,1.3l8.1,18.1c0.6,1.3,0,2.7-1.2,3.3l-18.2,8.2C1771.7,228.9,1771.3,229,1771,229z"/>
<path class="st0" d="M1749.7,229.7c-0.5,0-1.1-0.2-1.5-0.5c-1.1-0.8-1.3-2.3-0.5-3.5l26-35.3c0.7-1.2,2.3-1.5,3.4-0.8
	c1.2,0.7,1.5,2.3,0.8,3.4c-0.1,0.1-0.1,0.2-0.2,0.3l-26,35.2C1751.2,229.4,1750.5,229.7,1749.7,229.7z"/>
<g class="st0">
	<path d="M1473.9,325.8h-43.5h-3.4l-2.4,2.4l-32.9,33l-2.4,2.4v3.4v67.8c0,12.1,9.9,22,22,22h62.6c12.1,0,22-9.9,22-22v-87
		C1495.9,335.7,1486.1,325.8,1473.9,325.8z M1487.8,434.8c0,7.7-6.2,13.8-13.8,13.8h-62.6c-7.7,0-13.8-6.2-13.8-13.8v-67.9h21.4
		c6.3,0,11.6-5.2,11.6-11.6V334h43.5c7.7,0,13.8,6.2,13.8,13.8L1487.8,434.8L1487.8,434.8z"/>
	<path d="M1418.9,390.6c-1.3,0-2.3,0.9-2.3,2.4v6c0,0.1-0.1,0.2-0.2,0.2h-6.9c-0.1,0-0.2-0.1-0.2-0.2v-6c0-1.5-0.9-2.4-2.3-2.4
		c-1.3,0-2.3,0.9-2.3,2.4v16.6c0,1.5,0.9,2.4,2.3,2.4s2.3-0.9,2.3-2.4v-6.2c0-0.1,0.1-0.2,0.2-0.2h6.9c0.1,0,0.2,0.1,0.2,0.2v6.2
		c0,1.5,0.9,2.4,2.3,2.4c1.3,0,2.3-0.9,2.3-2.4v-16.6C1421.2,391.6,1420.2,390.6,1418.9,390.6z"/>
	<path d="M1437.3,390.8h-12.1c-1.4,0-2.3,0.8-2.3,2.1c0,1.2,0.9,2,2.3,2h3.6c0.1,0,0.2,0.1,0.2,0.2v14.6c0,1.4,0.9,2.4,2.3,2.4
		c1.3,0,2.3-0.9,2.3-2.4v-14.6c0-0.1,0.1-0.2,0.2-0.2h3.6c1.4,0,2.3-0.8,2.3-2C1439.6,391.6,1438.7,390.8,1437.3,390.8z"/>
	<path d="M1458.6,390.6c-1.4,0-2.1,0.8-2.8,2.4l-4.4,10.2h-0.1l-4.5-10.2c-0.7-1.6-1.4-2.4-2.8-2.4c-1.5,0-2.5,1.1-2.5,2.8V410
		c0,1.4,0.9,2.2,2.1,2.2c1.2,0,2.1-0.8,2.1-2.2v-10.2h0.1l3.3,7.6c0.6,1.5,1.2,1.9,2.3,1.9s1.6-0.4,2.3-1.9l3.3-7.6h0.1V410
		c0,1.4,0.8,2.2,2.1,2.2s2.1-0.8,2.1-2.2v-16.6C1461,391.7,1460.1,390.6,1458.6,390.6z"/>
	<path d="M1476.7,407.9h-7.5c-0.1,0-0.2-0.1-0.2-0.2v-14.6c0-1.4-0.9-2.4-2.3-2.4c-1.3,0-2.3,0.9-2.3,2.4v16.6
		c0,1.4,0.9,2.3,2.3,2.3h10c1.4,0,2.3-0.8,2.3-2.1C1479,408.7,1478.2,407.9,1476.7,407.9z"/>
</g>
<g class="st0">
	<g>
		<path d="M405.9,580.9h-48.3h-3.7l-2.6,2.6l-36.6,36.6l-2.6,2.6v3.7v75.4c0,13.4,10.9,24.4,24.4,24.4H406
			c13.4,0,24.4-10.9,24.4-24.4v-96.6C430.3,591.8,419.4,580.9,405.9,580.9z M421.3,701.8c0,8.5-6.9,15.4-15.4,15.4h-69.5
			c-8.5,0-15.4-6.9-15.4-15.4v-75.3h23.8c7.1,0,12.8-5.7,12.8-12.8v-23.8h48.3c8.5,0,15.4,6.9,15.4,15.4L421.3,701.8L421.3,701.8z"
			/>
		<path d="M346.7,657.2c1.7,0,2.6,0.6,3.5,1.9c0.8,1.1,1.5,1.5,2.5,1.5c1.4,0,2.6-1,2.6-2.5c0-0.6-0.2-1.2-0.5-1.7
			c-1.3-2.4-4.2-4.2-8.1-4.2c-4.6,0-8,2.2-9.4,6.4c-0.5,1.7-0.7,3.1-0.7,7.1s0.2,5.4,0.7,7.1c1.4,4.3,4.8,6.4,9.4,6.4
			c3.9,0,6.8-1.8,8.1-4.2c0.3-0.5,0.5-1.1,0.5-1.7c0-1.5-1.2-2.5-2.6-2.5c-1,0-1.7,0.4-2.5,1.5c-1,1.3-1.9,1.9-3.5,1.9
			c-2.1,0-3.4-1.1-3.9-2.9c-0.3-1-0.4-1.9-0.4-5.6s0.1-4.7,0.4-5.6C343.3,658.3,344.5,657.2,346.7,657.2z"/>
		<path d="M371,663.1l-1.4-0.2c-3-0.4-4.1-1.4-4.1-2.9c0-1.7,1.2-2.8,3.5-2.8c1.6,0,3.2,0.5,4.5,1.1c0.5,0.3,1.1,0.4,1.7,0.4
			c1.4,0,2.5-1,2.5-2.5c0-0.9-0.4-1.7-1.4-2.3c-1.5-1-4.4-1.7-7.3-1.7c-5.7,0-9.3,3.2-9.3,8c0,4.6,2.9,7.1,8.3,7.9l1.4,0.2
			c3.1,0.4,4,1.4,4,2.9c0,1.8-1.5,3.1-4.3,3.1c-1.9,0-3.5-0.5-5.6-1.7c-0.5-0.3-1-0.5-1.7-0.5c-1.5,0-2.5,1.1-2.5,2.5
			c0,0.9,0.5,1.8,1.3,2.4c1.7,1.1,4.6,2.2,8.3,2.2c6.8,0,10.3-3.5,10.3-8.3C379.2,666.3,376.4,663.8,371,663.1z"/>
		<path d="M394.7,663.1l-1.4-0.2c-3-0.4-4.1-1.4-4.1-2.9c0-1.7,1.2-2.8,3.5-2.8c1.6,0,3.2,0.5,4.5,1.1c0.5,0.3,1.1,0.4,1.7,0.4
			c1.4,0,2.5-1,2.5-2.5c0-0.9-0.4-1.7-1.3-2.3c-1.5-1-4.4-1.7-7.3-1.7c-5.7,0-9.3,3.2-9.3,8c0,4.6,2.9,7.1,8.3,7.9l1.4,0.2
			c3.1,0.4,4,1.4,4,2.9c0,1.8-1.5,3.1-4.3,3.1c-1.9,0-3.5-0.5-5.6-1.7c-0.5-0.3-1-0.5-1.7-0.5c-1.5,0-2.5,1.1-2.5,2.5
			c0,0.9,0.5,1.8,1.4,2.4c1.7,1.1,4.6,2.2,8.2,2.2c6.8,0,10.3-3.5,10.3-8.3C402.9,666.3,400.1,663.8,394.7,663.1z"/>
	</g>
</g>
<g class="st0">
	<path d="M840,118.1l-0.3,1.3c-0.5,1.3-1.2,2.7-1.7,4c0,0.3-0.3,1-0.5,1.3c-5.3,11.8-15.3,17.5-30.8,20.3c-0.8,0.2-2.3,0.5-3.8,0.7
		c-15,1.8-26.3,2.2-41.4,0.8c-0.5,0-1.2-0.2-1.5-0.2c-20.8-2.3-33.2-9.8-39.7-21.8c-0.2-0.2-0.5-0.7-0.7-1.3
		c-0.7-1.2-1.2-2.7-1.7-3.8c-0.3-0.7-0.5-1-0.7-1.5c-2.2-6.2-3-13.3-3-21.3c0-14,4.3-19.5,10.2-27c-4.5-16,1.8-27,1.8-27
		s9.5-2,27.5,10.8c9.7-4.2,35.5-4.5,47.9-0.8c7.5-5,21.3-12,27-10c1.3,2.3,4.5,9.3,1.8,24.8c1.8,3.3,11.8,10.7,11.8,31.2
		C842.2,106.1,841.4,112.6,840,118.1L840,118.1z M730.8,113.2c0,18.5,13,26.7,31.2,28.2c1.2,0.2,2.3,0.2,3.7,0.3
		c8.5,0.2,19.2,0.3,29.7,0c2.3-0.2,4.7-0.3,6.8-0.7c17.3-2.5,24.5-12.5,24.5-26.5c0-10.2-4.7-23.5-23.3-23.5
		c-1.3,0-12.3,1.3-22.8,1.3c-11.8,0-24-1.3-25.8-1.3C735.5,91.1,730.8,106.2,730.8,113.2L730.8,113.2z M752.8,104.7
		c3.7,0,6.5,4.3,6.5,9.7c0,5.3-2.8,9.7-6.5,9.7s-6.3-4.3-6.3-9.7C746.5,109.1,749.2,104.7,752.8,104.7z M806.7,124.1
		c-3.8,0-6.7-4.3-6.7-9.7s2.8-9.7,6.7-9.7c3.7,0,6.5,4.3,6.5,9.7S810.4,124.1,806.7,124.1z M779,128.7c-1.7,0-3-1.5-3-3.2
		c0-1.5,1.3-2.8,3-2.8s3.2,1.3,3.2,2.8C782.2,127.2,780.7,128.7,779,128.7z M779.2,138.7c-4.8,0-8.7-4.2-8.7-6.7
		c0-1,0.7-1.8,1.7-1.8s1.7,0.8,1.7,1.8c0.2,0.5,2.3,3.3,5.3,3.3c2.3,0,4.5-2,4.5-3.3c0-1,0.8-1.8,1.7-1.8c1,0,1.8,0.8,1.8,1.8
		C787.2,135.1,783.9,138.7,779.2,138.7L779.2,138.7z"/>
</g>
<g class="st0">
	<g id="_x35_151e0c8492e5103c096af88a5006e1e">
		<path id="XMLID_1_" d="M1497.8,617c5.9-1.4,13.9-3.5,27.9-3.9c-0.4-0.8-0.8-1.6-1-2.4c-5.4-0.1-22.2,0.8-28,2.1
			c-0.1,0-0.1,0-0.1,0c-0.2,0-0.3-0.1-0.4-0.3s0.1-0.5,0.3-0.5c5.7-1.4,22.1-2.2,27.9-2.2c-1.3-3.9-1.9-8.3-1.9-13.2
			c0-8.7,2.7-12,6.4-16.7c-2.8-9.9,1-16.7,1-16.7s5.9-1.2,17,6.7c6-2.6,22.1-2.8,29.6-0.6c4.7-3.1,13.2-7.4,16.6-6.2
			c0.9,1.5,2.9,5.9,1.2,15.5c1.2,2.1,7.2,6.6,7.3,19.2c-0.1,4.7-0.6,8.6-1.5,12c14.4-0.1,23,1.1,28.8,2.1c0.2,0.1,0.4,0.3,0.3,0.5
			s-0.2,0.3-0.4,0.3c-0.1,0-0.1,0-0.1,0c-5.8-1.1-14.4-2.3-28.9-2.1c-0.2,0.9-0.5,1.7-0.9,2.4c5,0.2,18.5,0.7,29.6,4.1
			c0.2,0.1,0.3,0.3,0.3,0.5c-0.1,0.2-0.2,0.3-0.4,0.3c-0.1,0-0.1,0-0.1,0c-11.3-3.5-25.1-3.9-29.7-4c-4,8.8-12.2,12.1-25.6,13.5
			c4.3,2.7,5.5,6.1,5.5,15.4s-0.1,10.5-0.1,12.6c0.1,3.5,5.1,5.1,5,6.3c-0.2,1.1-4.3,0.9-6.2,0.3c-5.4-1.9-4.9-6.4-4.9-6.4
			l-0.2-12.4c0,0,0.3-6.6-2.1-6.6c0,1.3,0,15.4,0,20.2c0,4.4,3.1,5.7,3.1,7.3c0,2.8-5.6-0.3-7.3-2c-2.7-2.7-2.3-8.3-2.3-12.7
			c0.1-4.3-0.1-13.7-0.1-13.7l-1.8,0.1c0,0,0.8,20.5-0.9,24.2c-2.2,4.8-8.7,6.5-8.7,4.3c0-1.4,1.6-1,2.5-4.3
			c0.8-2.8,0.5-23.7,0.5-23.7s-2.1,1.2-2.1,5.1c0,1.8-0.1,12-0.1,15.1c0,3.8-5.4,6-8,6c-1.3,0-2.9-0.1-2.9-0.8c0-1.8,5-2.8,5-6.5
			c0-3.2-0.1-11.4-0.1-11.4s-2.5,0.4-6.1,0.4c-9,0-11.9-5.8-13.2-9c-1.8-4.2-4-6.2-6.5-7.7c-1.5-1-1.8-2.1-0.1-2.4
			c8-1.5,10,9.1,15.4,10.7c3.8,1.2,8.7,0.7,11.1-0.9c0.3-3.2,2.7-6,4.6-7.5c-13.6-1.3-21.6-6-25.8-13.6c-14.2,0.3-22.2,2.4-28.1,3.8
			c-0.4,0.1-0.9,0.2-1.3,0.3c-0.1,0-0.1,0-0.1,0c-0.2,0-0.3-0.1-0.4-0.3c-0.1-0.2,0.1-0.5,0.3-0.5
			C1496.9,617.2,1497.3,617.2,1497.8,617z"/>
	</g>
</g>
<g class="st0">
	<path class="st1" d="M257.5,412c-3.7,0-6.5,3.2-6.3,6.8c0.1,3.4-0.1,7.8-1.2,11.4s-3,5.9-6.1,6.2v3.3c3.1,0.3,5,2.6,6.1,6.2
		s1.3,8,1.2,11.4c-0.1,3.5,2.7,6.8,6.3,6.8h38.1c3.7,0,6.5-3.2,6.3-6.8c-0.1-3.4,0.1-7.8,1.2-11.4s3-5.9,6.1-6.2v-3.3
		c-3.1-0.3-5-2.6-6.1-6.2s-1.3-8-1.2-11.4c0.1-3.5-2.7-6.8-6.3-6.8H257.5L257.5,412z M288.2,444c0,4.8-3.6,7.8-9.6,7.8h-10.3
		c-0.3,0-0.6-0.1-0.8-0.3c-0.2-0.2-0.3-0.5-0.3-0.8v-25.4c0-0.3,0.1-0.6,0.3-0.8c0.2-0.2,0.5-0.3,0.8-0.3h10.2c5,0,8.3,2.7,8.3,6.9
		c0,2.9-2.2,5.5-5,6v0.2C285.6,437.6,288.2,440.3,288.2,444z M277.4,427.7h-5.8v8.2h4.9c3.8,0,5.9-1.6,5.9-4.3
		C282.4,429,280.6,427.7,277.4,427.7z M271.6,439.2v9.1h6.1c4,0,6.1-1.6,6.1-4.6c0-3-2.1-4.5-6.3-4.5L271.6,439.2L271.6,439.2z"/>
</g>
<g class="st0">
	<path class="st1" d="M1522.6,178.6c-15.6,0-25.3,7.7-29.2,23.2c5.9-7.7,12.7-10.6,20.5-8.7c4.5,1.1,7.6,4.3,11.2,7.8
		c5.7,5.8,12.4,12.5,26.8,12.5c15.6,0,25.3-7.7,29.2-23.2c-5.9,7.7-12.6,10.6-20.5,8.7c-4.5-1.1-7.6-4.3-11.2-7.8
		C1543.7,185.3,1537.1,178.6,1522.6,178.6L1522.6,178.6z M1493.4,213.4c-15.6,0-25.3,7.7-29.2,23.2c5.9-7.7,12.7-10.6,20.5-8.7
		c4.5,1.1,7.6,4.3,11.2,7.8c5.7,5.8,12.4,12.5,26.8,12.5c15.6,0,25.3-7.7,29.2-23.2c-5.9,7.7-12.7,10.6-20.5,8.7
		c-4.5-1.1-7.6-4.3-11.2-7.8C1514.5,220.1,1507.8,213.4,1493.4,213.4z"/>
</g>
<g class="st0">
	<path d="M1515.4,873.1c0-5.4,4.4-9.7,9.7-9.7h69.5c5.4,0,9.7,4.4,9.7,9.7v11.1c0,2.3-1.9,4.2-4.2,4.2s-4.2-1.9-4.2-4.2v-11.1
		c0-0.8-0.6-1.4-1.4-1.4H1525c-0.8,0-1.4,0.6-1.4,1.4v69.5c0,0.8,0.6,1.4,1.4,1.4h75c2.3,0,4.2,1.9,4.2,4.2s-1.9,4.2-4.2,4.2h-75
		c-5.4,0-9.7-4.4-9.7-9.7L1515.4,873.1L1515.4,873.1z M1541.8,899.5c0-2.3,1.9-4.2,4.2-4.2h20.8c2.3,0,4.2,1.9,4.2,4.2
		s-1.9,4.2-4.2,4.2h-5.6V933c0,2.3-1.9,4.2-4.2,4.2c-2.3,0-4.2-1.9-4.2-4.2v-29.2h-6.9C1543.7,903.8,1541.8,901.8,1541.8,899.5z
		 M1578.1,900c2.3-2.8,6-4.6,11-4.6c4.6,0,8.1,1.6,10.5,4.1c1.6,1.7,1.5,4.3-0.2,5.9c-1.7,1.6-4.3,1.5-5.9-0.2
		c-0.6-0.6-1.8-1.5-4.4-1.5c-2.8,0-4,0.9-4.6,1.6c-0.7,0.9-1,2-1,2.5s0.2,1.7,1,2.5c0.6,0.7,1.8,1.6,4.6,1.6c0.4,0,0.8,0.1,1.2,0.2
		c3.7,0.5,6.5,2.2,8.4,4.4c2.2,2.6,2.9,5.7,2.9,7.9s-0.7,5.3-2.9,7.9c-2.3,2.8-6,4.6-11,4.6c-4.6,0-8.1-1.6-10.5-4.1
		c-1.6-1.7-1.5-4.3,0.2-5.9c1.7-1.6,4.3-1.5,5.9,0.2c0.6,0.6,1.8,1.5,4.4,1.5c2.8,0,4-0.9,4.6-1.6c0.7-0.9,1-2,1-2.5s-0.2-1.7-1-2.5
		c-0.6-0.7-1.8-1.6-4.6-1.6c-0.4,0-0.8-0.1-1.2-0.2c-3.7-0.5-6.5-2.2-8.4-4.4c-2.2-2.6-2.9-5.7-2.9-7.9S1575.9,902.6,1578.1,900z"/>
</g>
<g class="st0">
	<path class="st1" d="M243.5,793.9c1.1-1.1,2.5-1.7,4.1-1.7H294c9.6,0,17.4,7.8,17.4,17.4v28.9c0,3.2-2.6,5.8-5.8,5.8
		s-5.8-2.6-5.8-5.8v-28.9c0-3.2-2.6-5.8-5.8-5.8h-40.5v28.9c0,3.2-2.6,5.8-5.8,5.8h-28.9v63.7c0,3.2,2.6,5.8,5.8,5.8h5.8
		c3.2,0,5.8,2.6,5.8,5.8c0,3.2-2.6,5.8-5.8,5.8h-5.8c-9.6,0-17.4-7.8-17.4-17.4v-69.5c0-1.5,0.6-3,1.7-4.1L243.5,793.9z M226.9,827
		h15v-15L226.9,827z M282.4,871.9c0-8.8,7.1-15.9,15.9-15.9h13c3.2,0,5.8,2.6,5.8,5.8s-2.6,5.8-5.8,5.8h-13c-2.4,0-4.4,2-4.4,4.4
		c0,2.4,2,4.4,4.4,4.4h2.9c8.8,0,15.9,7.1,15.9,15.9c0,8.8-7.1,15.9-15.9,15.9h-13c-3.2,0-5.8-2.6-5.8-5.8s2.6-5.8,5.8-5.8h13
		c2.4,0,4.4-2,4.4-4.4c0-2.4-2-4.4-4.4-4.4h-2.9C289.5,887.8,282.4,880.7,282.4,871.9z M276.6,861.7c0-3.2-2.6-5.8-5.8-5.8
		s-5.8,2.6-5.8,5.8v28.9c0,3.2-2.6,5.8-5.8,5.8c-3.2,0-5.8-2.6-5.8-5.8v-1.9c0-3.2-2.6-5.8-5.8-5.8c-3.2,0-5.8,2.6-5.8,5.8v2
		c0,9.6,7.8,17.4,17.4,17.4c9.6,0,17.4-7.8,17.4-17.4v-29H276.6z"/>
</g>
<g class="st0">
	<g id="_x35_151e0c8492e5103c096af88a51f0aa3">
		<path class="st1" d="M518.5,887.7l-8-4.6c-0.5-0.3-0.9-0.9-0.9-1.4V872c0-0.5-0.3-1.1-0.8-1.4l-3.4-1.9c-0.2-0.2-0.5-0.2-0.8-0.2
			c-0.3,0-0.5,0.1-0.9,0.2l-3.4,1.9c-0.5,0.3-0.8,0.9-0.8,1.4v9.8c0,0.5-0.3,1.1-0.9,1.4l-8,4.6c-0.2,0.2-0.5,0.2-0.8,0
			c-0.2-0.2-0.4-0.4-0.4-0.7v-20.9c0-0.6,0.3-1.1,0.9-1.4L504,857c0.2-0.2,0.5-0.2,0.8-0.2h0.2c0.2,0,0.5,0.1,0.8,0.2l13.5,7.8
			c0.5,0.3,0.8,0.9,0.8,1.4V887c0,0.3-0.2,0.5-0.4,0.7C519,887.9,518.7,887.9,518.5,887.7z M570.4,882.1v-15.6
			c0-0.6,0.3-1.1,0.8-1.4l13.5-7.8c0.5-0.3,1.1-0.3,1.6,0l3.4,1.9c0.2,0.1,0.4,0.1,0.5,0c0.2-0.1,0.3-0.3,0.3-0.5v-20.7
			c0-0.3,0.2-0.5,0.4-0.7s0.5-0.2,0.8,0l8.1,4.5c0.5,0.3,0.9,0.9,0.9,1.4v38.8c0,0.6-0.3,1.1-0.9,1.4l-13.5,7.8
			c-0.5,0.3-1.2,0.3-1.6,0l-13.5-7.8C570.7,883.3,570.4,882.8,570.4,882.1z M580.4,877c0,0.2,0.1,0.3,0.2,0.4l4.7,2.6
			c0.2,0.1,0.3,0.1,0.4,0l4.7-2.6c0.2-0.1,0.2-0.2,0.2-0.4v-5.4c0-0.2-0.1-0.3-0.2-0.4l-4.7-2.7c-0.2-0.1-0.3-0.1-0.4,0l-4.7,2.7
			c-0.2,0.1-0.2,0.2-0.2,0.4V877z M639.9,864.9l-13.4-7.8c-0.5-0.3-1.2-0.3-1.6,0l-13.5,7.8c-0.5,0.3-0.8,0.9-0.8,1.4v15.6
			c0,0.6,0.3,1.2,0.9,1.4l13.4,7.6c0.5,0.3,1.1,0.3,1.6,0l8.1-4.5c0.2-0.2,0.4-0.4,0.4-0.7c0-0.3-0.2-0.5-0.4-0.7l-13.6-7.8
			c-0.2-0.2-0.4-0.4-0.4-0.7v-4.9c0-0.3,0.2-0.5,0.4-0.7l4.2-2.4c0.2-0.2,0.5-0.2,0.8,0l4.2,2.4c0.2,0.2,0.4,0.4,0.4,0.7v3.9
			c0,0.3,0.2,0.5,0.4,0.7c0.2,0.2,0.5,0.2,0.9,0l8.1-4.7c0.5-0.3,0.8-0.9,0.8-1.4v-3.8C640.8,865.8,640.5,865.2,639.9,864.9z
			 M530.7,883.3l13.5,7.8c0.5,0.3,1.2,0.3,1.6,0l13.5-7.8c0.5-0.3,0.8-0.9,0.8-1.4v-15.6c0-0.5-0.3-1.1-0.9-1.4l-13.5-7.8
			c-0.5-0.3-1.2-0.3-1.6,0l-13.5,7.8c-0.5,0.3-0.9,0.9-0.9,1.4v15.6C530,882.5,530.3,883,530.7,883.3z M611.1,919.2l-41.6-24
			c-2.6-1.5-6.1-1.5-8.8,0l-41.6,24c-2.7,1.6-4.3,4.5-4.3,7.6v48c0,3.1,1.6,6,4.3,7.6l10.9,6.3c5.3,2.6,7.2,2.6,9.6,2.6
			c7.8,0,12.3-4.7,12.3-12.9V931c0-0.7-0.5-1.2-1.2-1.2h-5.3c-0.7,0-1.2,0.5-1.2,1.2v47.2c0,3.6-3.8,7.3-9.9,4.2l-11.4-6.6
			c-0.4-0.2-0.6-0.6-0.6-1.1v-48c0-0.5,0.2-0.9,0.6-1.2l41.6-24c0.4-0.2,0.9-0.2,1.3,0l41.6,24c0.4,0.2,0.6,0.7,0.6,1.2v48
			c0,0.5-0.2,0.9-0.6,1.1l-41.6,24c-0.4,0.2-0.9,0.2-1.3,0l-10.7-6.4c-0.3-0.2-0.7-0.2-1-0.1c-2.9,1.7-3.5,1.9-6.3,2.9
			c-0.7,0.2-1.7,0.6,0.4,1.8l13.9,8.2c1.3,0.8,2.9,1.2,4.3,1.2c1.6,0,3-0.4,4.3-1.2l41.6-24c2.7-1.6,4.3-4.5,4.3-7.6v-48
			C615.4,923.6,613.8,920.8,611.1,919.2z M579.6,970.2c-12.4,0-15.1-3.1-16.1-9.3c-0.1-0.6-0.7-1.2-1.3-1.2h-6
			c-0.8,0-1.3,0.6-1.3,1.3c0,7.9,4.3,17.3,24.8,17.3c14.9,0,23.3-5.8,23.3-16.1c0-10.2-6.8-12.8-21.2-14.7
			c-14.6-1.9-16.1-2.9-16.1-6.4c0-2.8,1.2-6.6,12-6.6c9.6,0,13.2,2.1,14.7,8.5c0.2,0.6,0.7,1.1,1.3,1.1h6c0.4,0,0.7-0.2,1-0.5
			c0.2-0.3,0.4-0.6,0.4-1c-0.9-11.2-8.4-16.4-23.4-16.4c-13.3,0-21.3,5.7-21.3,15.1c0,10.2,7.9,13.1,20.8,14.3
			c15.4,1.5,16.5,3.7,16.5,6.7C593.7,968,589.4,970.2,579.6,970.2z M625.9,870.8c-0.1-0.1-0.2-0.1-0.3,0l-2.6,1.5
			c-0.1,0.1-0.2,0.2-0.2,0.2v3c0,0.1,0.1,0.2,0.2,0.2l2.6,1.5c0.1,0.1,0.2,0.1,0.3,0l2.6-1.5c0.1-0.1,0.2-0.2,0.2-0.2v-3
			c0-0.1-0.1-0.2-0.2-0.2L625.9,870.8z"/>
	</g>
</g>
<g class="st0">
	<path class="st2" d="M775.3,672.1l9.2,0.1c0,0-17.1,23.2-18.5,25.1c-0.5,0.6-1.1,1.3-1.5,2.1c-0.9,2.1-1.8,6.6-1.8,6.6h-8.4
		c0,0,1.3-4.7,1.3-7.2c0-2.2-1.2-4.4-1.8-6.6c-0.6-2.2-1.5-6.6-1.5-6.6h8.7l1.2,4.8L775.3,672.1"/>
	<path class="st2" d="M757.9,677c1.7,1,2.7,6.7,2.7,6.7s-8.9,0.1-13.7,0.1h-4.2l-5.1,22.1h-7.8c0,0,4.8-24,6-28.3
		c0.4-1.4,2.5-1.2,6.2-1.2h5.8C751.7,676.4,756.1,675.9,757.9,677 M721.8,687.8c0,0,0.2-1.4-0.8-3.1c-0.9-1.4-1.7-1.7-4.1-1.8
		c-6.7-0.2-6.6,4.8-6.6,4.8L721.8,687.8z M729.1,682.1c1,3.6-0.9,11.9-0.9,11.9s-9.8-0.2-15.2,0c-1.7,0.1-3.7-0.2-4.2,0.6
		c-0.7,1.1,0.3,2.8,1.1,3.5c0.9,0.8,2.8,0.9,3.4,1c4.4,0.6,13.5,0.1,13.5,0.1l-1.6,7c0,0-12.9,0.6-19.4-0.9
		c-1.3-0.3-2.5-0.9-3.3-1.8c-0.2-0.2-0.4-0.6-0.6-0.8c-0.2-0.2-0.7-1-0.9-1.5c-1.5-3.9,0.2-11.5,1.8-15.5c0.2-0.5,0.4-1.1,0.7-1.6
		c0.3-0.6,0.6-1.3,0.8-1.7c0.2-0.3,0.4-0.4,0.5-0.7c0.2-0.3,0.4-0.6,0.6-0.8c0.6-0.7,1.3-1.2,2.1-1.8c2.7-2,7.6-3.6,13.4-3
		c2.2,0.2,5.5,1,7.2,3.3C728.6,680,728.9,681.2,729.1,682.1L729.1,682.1z M693.5,676.4h7.5c0,0-4.2,19.9-6.3,29.6h-8.6
		c-6,0-11.4,0.7-13.7-3.6c-2.2-4.2-0.1-11.1,0.9-15.8c0.7-3.3,2.2-10.1,2.2-10.1l7.8-0.1c0,0-2.2,10.6-3.1,15.9
		c-0.3,1.9-1,3.7-0.3,5.1c0.7,1.3,1.6,1.4,4.5,1.5c0.9,0,3.9,0,3.9,0L693.5,676.4 M658.3,690.7c0.8-2.8,1.9-5.8,1.8-8.4
		c-0.2-2.7-2.4-5.2-3.9-5.7c-4.4-1.6-8.5,0.6-10.1,2.4c-2.1,2.3-2.8,5-3.6,8.7c-0.6,2.7-1,5.6,0,7.8c1.8,3.8,7.4,2.9,13.4,3
		C656.8,696.1,657.6,693.4,658.3,690.7L658.3,690.7z M668.7,679.7c0.9,6.2-2.4,13.1-4.7,19.1c2.3,0.2,4.3,0,4.5,0.1
		c0.2,0.2-1.6,7.2-2.1,7.2c-1.8,0-7.9,0.1-10.5,0.1c-8.3,0-16,0.5-20-3.6c-1.6-1.7-2.7-4.5-3-6.6c-0.4-3.4,0.1-7.1,0.9-10.1
		c0.7-2.8,1.6-5.4,3-7.8c3.5-6.1,9.5-10.6,19.7-9.5c2,0.2,4.8,1.1,6.6,2.1c0.1,0.1,0.5,0.4,0.6,0.5
		C666.1,672.7,668.3,676.3,668.7,679.7L668.7,679.7z M632.1,676.4c-0.5,2.3-1,4.9-1.5,7.1h-8.4c0.6-2.5,1.1-5,1.8-7.2
		C626.7,676.4,629.1,676.4,632.1,676.4 M621.9,685.6h8.1c-1.1,5.8-3.1,15.2-4.8,21.8c-1,4.1-1.7,7.1-4.5,9.3
		c-0.2,0.2-0.4,0.1-0.6,0.3c-0.5,0.5-2.9,1.1-4.2,1.2c-2.1,0.2-4.5,0-7.1,0c0.7-2.5,1.5-5.5,2.1-7.7c6.4,0.8,6.5-5.2,7.8-11
		C619.3,696,621.5,687,621.9,685.6"/>
	<g>
		<path class="st2" d="M603.1,700.8l-0.2,0.4c-2.9,5.7-8.2,9.2-15.6,9.4c-3.5,0.1-6.8-0.8-9-1.8c-4.7-2.1-8.6-6-10.7-10.1
			c-3.1-6-3.6-14.2,2.8-20.4c0.1,0-0.8,1.3-0.7,1.3l-0.2,0.6c-4.6,14.4,9.6,26.8,23.4,25.4C596.3,705.3,600.5,703.5,603.1,700.8"/>
		<path class="st2" d="M594.7,694.9c3.5,0,7.1-1.6,9.3-3.9c-1.9,4.8-7.3,7.8-14.6,6.9c-6.1-0.8-11.9-7-12.5-13.1
			c-0.4-4.5,1.1-7.2,3.7-10.4c-0.9,1.7-1.2,3-1.3,3.8C578.2,687.9,587,694.8,594.7,694.9"/>
		<path class="st2" d="M603.6,682.8c-0.5,1.2-3.6,3.6-5,3.9c-5.4,1.2-8.9-1.4-10.7-4.4c-0.3-0.4-0.8-1.6-0.9-1.9
			c-0.7-2.4-0.4-6,1.7-7.9c-0.6,1.8-0.7,3.9-0.4,5.2c0.2,0.8,0.8,2.2,1.4,3.1c1.1,1.6,1.8,2,3.3,2.9c0.7,0.4,1.3,0.7,1.7,0.8
			C596.1,684.9,599,686,603.6,682.8"/>
	</g>
</g>
<g class="st0">
	<path class="st3" d="M387.8,213.5c0,12.1-22.9,22-51.3,22s-51.3-9.8-51.3-22s22.9-22,51.3-22C364.8,191.5,387.8,201.3,387.8,213.5z
		"/>
	<path class="st3" d="M312.1,258.5c10.7,5.8,30.3-9.7,43.8-34.6c13.5-24.9,15.8-49.8,5.1-55.6c-10.7-5.8-30.3,9.7-43.8,34.6
		C303.7,227.9,301.4,252.7,312.1,258.5z"/>
	<path class="st3" d="M360.9,258.5c-10.7,5.8-30.3-9.7-43.8-34.6s-15.8-49.8-5.1-55.6c10.7-5.8,30.3,9.7,43.7,34.6
		C369.3,227.9,371.6,252.7,360.9,258.5z"/>
	<path class="st3" d="M329.2,213.5c0,4,3.3,7.3,7.3,7.3s7.3-3.3,7.3-7.3c0-4-3.3-7.3-7.3-7.3S329.2,209.4,329.2,213.5z"/>
</g>
<g class="st0">
	<path class="st3" d="M1826.4,474.9c0,12.1-22.9,22-51.3,22s-51.3-9.8-51.3-22s22.9-22,51.3-22
		C1803.4,452.9,1826.4,462.7,1826.4,474.9z"/>
	<path class="st3" d="M1750.7,520c10.7,5.8,30.3-9.7,43.8-34.6c13.5-24.9,15.8-49.8,5.1-55.6s-30.3,9.7-43.8,34.6
		S1740,514.2,1750.7,520z"/>
	<path class="st3" d="M1799.5,520c-10.7,5.8-30.3-9.7-43.8-34.6c-13.5-24.9-15.8-49.8-5.1-55.6s30.3,9.7,43.7,34.6
		C1807.9,489.3,1810.2,514.2,1799.5,520z"/>
	<path class="st3" d="M1767.8,474.9c0,4,3.3,7.3,7.3,7.3c4,0,7.3-3.3,7.3-7.3s-3.3-7.3-7.3-7.3
		C1771.1,467.5,1767.8,470.8,1767.8,474.9z"/>
</g>
<g class="st0">
	<path d="M554.4,236.1l3.2,0.7l2.6,0.9l2.1,1.1l1.6,1.1l1.2,1.2l0.9,1.2l0.6,1.2l0.4,1.1l0.1,0.9l0.1,0.7l0,0.5v18.9l-0.2,2.2
		l-0.5,1.9l-0.8,1.6l-0.9,1.4l-1.1,1.1l-1.2,0.9l-1.2,0.7l-1.2,0.5l-1.2,0.4l-1.1,0.2l-0.9,0.1l-0.8,0.1h-21.2l-2.4,0.2l-2.1,0.5
		l-1.8,0.8l-1.5,0.9l-1.2,1.1l-0.9,1.2l-0.7,1.3l-0.5,1.3l-0.4,1.2l-0.2,1.1l-0.1,0.9l-0.1,0.8v10.8h-7.9l-0.8-0.1l-1-0.2l-1.1-0.4
		l-1.2-0.7l-1.3-0.9l-1.3-1.3l-1.2-1.6l-1.1-2.1l-1-2.6l-0.8-3.1l-0.5-3.7l-0.2-4.4l0.2-4.3l0.6-3.7l0.8-3.1l1.1-2.5l1.3-2l1.4-1.6
		l1.5-1.2l1.5-0.8l1.4-0.6l1.3-0.4l1.1-0.2l0.8,0h0.6l0.2,0h28.9v-3h-20.7l0-9.7l-0.1-1.3l0.2-1.2l0.4-1.1l0.6-1l0.9-0.9l1.1-0.8
		l1.4-0.7l1.6-0.7l1.8-0.5l2.1-0.4l2.3-0.4l2.5-0.2l2.7-0.1l3-0.1l4.5,0.2L554.4,236.1L554.4,236.1z M532.1,243.1l-0.8,1.2l-0.3,1.5
		l0.3,1.5l0.8,1.2l1.2,0.8l1.5,0.3l1.5-0.3l1.2-0.8l0.8-1.2l0.3-1.5l-0.3-1.5l-0.8-1.2l-1.2-0.8l-1.5-0.3l-1.5,0.3L532.1,243.1z
		 M578.5,257.1l1,0.2l1.1,0.4l1.2,0.7l1.3,0.9l1.3,1.2l1.2,1.6l1.1,2.1l1,2.6l0.8,3.1l0.5,3.7l0.2,4.4l-0.2,4.4l-0.6,3.7l-0.8,3.1
		l-1.1,2.5l-1.3,2l-1.4,1.6l-1.5,1.2l-1.5,0.8l-1.4,0.6l-1.3,0.3l-1.1,0.2l-0.8,0.1l-0.6,0h-29.1v2.9h20.7l0,9.8l0.1,1.3l-0.2,1.2
		l-0.4,1.1l-0.6,1l-0.9,0.9l-1.1,0.8l-1.4,0.7l-1.6,0.6l-1.8,0.5l-2.1,0.5l-2.3,0.3l-2.5,0.2l-2.7,0.1l-3,0l-4.5-0.1l-3.8-0.5
		l-3.2-0.7l-2.6-0.9l-2.1-1.1l-1.6-1.2l-1.2-1.2l-0.9-1.2l-0.6-1.2l-0.4-1.1l-0.1-0.9l-0.1-0.7l0-0.5v-18.9l0.2-2.3l0.5-1.9l0.8-1.6
		l0.9-1.4l1.1-1.1l1.2-0.8l1.2-0.7l1.2-0.5l1.2-0.4l1.1-0.2l0.9-0.1l0.8-0.1l0.5,0H558l2.4-0.2l2.1-0.5l1.8-0.8l1.5-1l1.2-1.1
		l0.9-1.2l0.7-1.3l0.5-1.3l0.4-1.2l0.2-1.1l0.1-1l0.1-0.8v-10.8h7.4l0.5,0L578.5,257.1L578.5,257.1z M555.6,307.6l-0.8,1.2l-0.3,1.5
		l0.3,1.5l0.8,1.2l1.2,0.8l1.5,0.3l1.5-0.3l1.2-0.8l0.8-1.2l0.3-1.5l-0.3-1.5l-0.8-1.2l-1.2-0.8l-1.5-0.3l-1.5,0.3L555.6,307.6z"/>
</g>
<g class="st0">
	<path d="M1781.7,907.4c-3.2,1.7-6.8,3.1-10.3,4c-10.5,2.8-19.3-0.5-26.1-8.7c-4.9-5.8-9.4-12-14-18c-4.6-6.1-9.2-12-13.4-18.2
		c-3.5-5.3-6.4-11.1-7.6-17.5c-1.3-7.2,0.3-13.8,4.6-19.8c3.4-4.8,7.8-8.5,12.2-12.3c8.5-7.2,17.5-13.6,27.1-19.1
		c7.6-4.3,15.3-8.3,24.1-9.7c5.8-0.9,11.2,0.3,16,4c5.3,4.2,9.6,9.2,13.8,14.5c6.4,8.1,12.2,16.5,17.5,25.3
		c3.5,5.9,6.3,12.1,7.6,18.9c1.9,10.6-0.2,20.2-8.3,27.8c-2.8,2.7-6,5-9.2,7.2c-4.7,3.3-9.6,6.4-14.4,9.6L1781.7,907.4z
		 M1798.9,886.5c6.5-4.8,12.4-9,18.2-13.3c4.6-3.4,7.1-8,7.6-13.7c0.6-7.9-2-14.9-5.9-21.4c-6.2-10.7-13.3-20.8-21.3-30.3
		c-2.8-3.5-5.8-6.7-10.1-8.5c-1.1-0.5-2.2-1.1-3.3-1.7c-2.8-1.4-6-2.3-9-1.3c-6.8,2.2-13.2,5.4-19.1,9.4
		c-6.6,4.4-13.1,8.9-19.3,13.8c-4.6,3.7-9,7.9-13.1,12.2c-5.1,5.3-5.9,11.7-3.6,18.6c2.4,7.2,6.6,13.4,11.1,19.3
		c4.3,5.7,8.7,11.3,13.1,17c2.8,3.6,5.5,7.2,8.5,10.7c4.6,5.3,10.3,7.2,17.1,5.1c3.2-1,6.5-2.2,9.4-3.9
		C1786,894.6,1792.8,890.3,1798.9,886.5z"/>
	<path d="M1774.5,876.5c-0.9-2.4-1.6-4.4-2.2-6.4c-4.4-13.5-8.8-27.1-13.2-40.7c-0.3-1.1-0.8-2.1-1.1-3.2c-0.8-2.4,0.4-4.7,2.5-5.4
		c2.2-0.6,4.4,0.6,5.1,3.1c4.6,14.6,9.1,29.3,13.6,43.8c0.6,1.9,1.1,3.8,1.5,5.7c0.5,2.6-1.3,4.7-3.6,4.3
		C1776.1,877.6,1775.2,876.9,1774.5,876.5z"/>
	<path d="M1744.7,865c2.6,0.2,4.9,0.6,7.2,0.7c2.9,0.2,5.9,0.3,8.9,0.6c1.9,0.2,3.3,1,3.9,2.8c0.8,2.4-0.9,5-3.5,5
		c-6.5,0-13.1,0.2-19.4-1.6c-1.3-0.4-2.7-1.3-3.8-2.2c-1.3-1.1-1.6-2.8-1.1-4.4c2-6.4,4-12.9,6.1-19.3c0.4-1.3,1-2.4,1.8-3.5
		c1.2-1.7,3.1-2.3,4.6-1.4c1.5,0.9,2,2.5,1.3,4.6C1748.8,852.3,1746.8,858.5,1744.7,865z"/>
	<path d="M1796.2,830.7c-3.5-0.2-6.9-0.4-10.3-0.6c-2.5-0.2-5-0.2-7.6-0.3c-1.9-0.2-3.2-1.6-3.2-3.2c-0.1-1.8,1.2-3.2,3.1-3.5
		c0.6-0.1,1.3-0.1,1.9-0.1c2.9,0.1,5.8,0.2,8.7,0.4c3.6,0.2,7.2,0.6,10.8,0.9c3.2,0.3,4.8,2.3,3.9,5.4c-2.3,7.8-4.6,15.6-7.2,23.4
		c-0.8,2.4-3.1,3.5-5.1,2.7c-2-0.8-2.8-3-2-5.3c2.1-6,4.2-11.9,6.4-17.9C1796,832,1796,831.4,1796.2,830.7z"/>
</g>
<g class="st0">
	<path d="M117.6,614.3c-2.1-1.3-4-2.9-5.7-4.6c-5.1-5.1-6.2-11.3-3.7-17.9c1.7-4.8,3.7-9.4,5.7-14.1c1.9-4.7,3.8-9.3,6.1-13.8
		c1.9-3.8,4.3-7.4,7.6-10.2c3.7-3.2,8.1-4.5,12.9-4c3.9,0.4,7.5,1.6,11.1,2.9c7,2.5,13.7,5.5,20.1,9.2c5,2.9,9.9,6.1,13.6,10.7
		c2.5,3.1,3.6,6.6,3,10.6c-0.6,4.5-2.1,8.6-3.7,12.8c-2.6,6.4-5.4,12.5-8.8,18.5c-2.2,4-4.9,7.7-8.4,10.7
		c-5.5,4.7-11.7,6.7-18.8,4.5c-2.5-0.8-4.9-1.8-7.2-2.9c-3.5-1.6-6.9-3.4-10.3-5.1L117.6,614.3z M135.4,617.2
		c4.9,2.2,9.3,4.1,13.7,6c3.5,1.5,7,1.4,10.4-0.2c4.8-2.3,7.8-6.1,10.4-10.5c4.1-7.2,7.5-14.6,10.3-22.4c1-2.8,1.9-5.6,1.5-8.7
		c-0.1-0.8-0.1-1.6-0.2-2.5c-0.2-2.1-0.7-4.2-2.3-5.6c-3.5-3.2-7.5-5.8-11.8-7.9c-4.7-2.3-9.5-4.6-14.4-6.5
		c-3.7-1.4-7.6-2.5-11.4-3.5c-4.8-1.2-8.8,0.5-11.9,4.1c-3.3,3.8-5.5,8.2-7.4,12.9c-1.8,4.4-3.6,8.8-5.4,13.3
		c-1.1,2.8-2.4,5.6-3.3,8.5c-1.5,4.4-0.8,8.3,2.7,11.6c1.7,1.5,3.4,3,5.4,4.1C126.4,612.5,131.2,614.9,135.4,617.2z"/>
	<path d="M133,599.8c1.1-1.3,2-2.4,2.9-3.4c6.4-7.1,12.7-14.1,19.1-21.2c0.5-0.6,1-1.2,1.5-1.7c1.1-1.2,2.9-1.4,3.9-0.3
		c1.1,1.1,1.1,2.8-0.1,4c-6.9,7.5-13.8,15-20.7,22.5c-0.9,1-1.8,1.9-2.8,2.8c-1.3,1.1-3.2,0.8-3.7-0.7
		C132.9,601.1,133,600.3,133,599.8z"/>
	<path d="M129.7,578.7c0.7,1.6,1.3,3,2,4.4c0.9,1.8,1.8,3.5,2.7,5.3c0.6,1.1,0.6,2.3-0.3,3.2c-1.1,1.3-3.2,1.2-4.1-0.3
		c-2.2-3.7-4.5-7.5-5.6-11.7c-0.3-0.9-0.2-1.9,0-2.9c0.2-1.1,1.1-1.8,2.2-2.1c4.4-1,8.8-2,13.2-3c0.9-0.2,1.8-0.2,2.7-0.2
		c1.4,0.1,2.4,1,2.4,2.2s-0.8,1.9-2.2,2.3C138.3,576.8,134.1,577.8,129.7,578.7z"/>
	<path d="M166.7,597c-1.1-2.1-2-4.1-3.1-6.1c-0.8-1.5-1.6-3-2.3-4.5c-0.6-1.1-0.2-2.4,0.8-3c1-0.6,2.3-0.4,3.1,0.6
		c0.3,0.4,0.5,0.7,0.7,1.1c0.9,1.7,1.8,3.4,2.7,5.2c1.1,2.2,2.1,4.3,3.1,6.5c0.9,2,0.3,3.5-1.8,4c-5.3,1.3-10.6,2.5-15.9,3.7
		c-1.7,0.4-3-0.6-3.2-2.1c-0.2-1.4,0.8-2.6,2.5-2.9c4.1-0.8,8.3-1.5,12.4-2.3C165.9,597.2,166.2,597.1,166.7,597z"/>
</g>
<g class="st0">
	<path class="st1" d="M86.3,7.4c-15.6,0-25.3,7.7-29.2,23.2c5.9-7.7,12.7-10.6,20.5-8.7c4.5,1.1,7.6,4.3,11.2,7.8
		c5.7,5.8,12.4,12.5,26.8,12.5c15.6,0,25.3-7.7,29.2-23.2c-5.9,7.7-12.6,10.6-20.5,8.7c-4.5-1.1-7.6-4.3-11.2-7.8
		C107.4,14.1,100.7,7.4,86.3,7.4L86.3,7.4z M57,42.2c-15.6,0-25.3,7.7-29.2,23.2c5.9-7.7,12.7-10.6,20.5-8.7
		c4.5,1.1,7.6,4.3,11.2,7.8C65.2,70.4,71.8,77,86.3,77c15.6,0,25.3-7.7,29.2-23.2c-5.9,7.7-12.7,10.6-20.5,8.7
		c-4.5-1.1-7.6-4.3-11.2-7.8C78.1,48.9,71.5,42.2,57,42.2z"/>
</g>
<g class="st0">
	<path class="st1" d="M1395,712.1c-5.5,0-9.4,4.7-9.3,10c0.2,5-0.1,11.4-1.7,16.6c-1.6,5.2-4.4,8.6-8.9,9v4.8c4.5,0.4,7.3,3.8,8.9,9
		c1.6,5.2,1.9,11.6,1.7,16.6c-0.2,5.1,3.9,10,9.3,10h55.7c5.5,0,9.4-4.7,9.3-10c-0.2-5,0.1-11.4,1.7-16.6c1.6-5.2,4.4-8.6,8.9-9
		v-4.8c-4.5-0.4-7.3-3.8-8.9-9c-1.6-5.2-1.9-11.6-1.7-16.6c0.2-5.1-3.9-10-9.3-10H1395L1395,712.1z M1439.9,758.9
		c0,7.1-5.3,11.5-14.1,11.5h-15c-0.4,0-0.8-0.2-1.2-0.5s-0.5-0.7-0.5-1.2v-37.2c0-0.4,0.2-0.8,0.5-1.2s0.7-0.5,1.2-0.5h14.9
		c7.3,0,12.1,4,12.1,10.1c0,4.3-3.2,8.1-7.3,8.8v0.3C1436.1,749.6,1439.9,753.5,1439.9,758.9z M1424.1,735h-8.5v12.1h7.2
		c5.6,0,8.6-2.3,8.6-6.2C1431.4,737,1428.7,735,1424.1,735z M1415.6,751.9v13.3h8.9c5.8,0,8.9-2.4,8.9-6.7c0-4.4-3.1-6.6-9.3-6.6
		L1415.6,751.9L1415.6,751.9z"/>
</g>
<g class="st0">
	<path class="st2" d="M1834.9,353.1l9.2,0.1c0,0-17.1,23.2-18.5,25.1c-0.5,0.6-1.1,1.3-1.5,2.1c-0.9,2.1-1.8,6.6-1.8,6.6h-8.4
		c0,0,1.3-4.7,1.3-7.2c0-2.2-1.2-4.4-1.8-6.6c-0.6-2.2-1.5-6.6-1.5-6.6h8.7l1.2,4.8L1834.9,353.1"/>
	<path class="st2" d="M1817.5,358c1.7,1,2.7,6.7,2.7,6.7s-8.9,0.1-13.7,0.1h-4.2l-5.1,22.1h-7.8c0,0,4.8-24,6-28.3
		c0.4-1.4,2.5-1.2,6.2-1.2h5.8C1811.3,357.4,1815.7,356.9,1817.5,358 M1781.4,368.8c0,0,0.2-1.4-0.8-3.1c-0.9-1.4-1.7-1.7-4.1-1.8
		c-6.7-0.2-6.6,4.8-6.6,4.8L1781.4,368.8z M1788.7,363.1c1,3.6-0.9,11.9-0.9,11.9s-9.8-0.2-15.2,0c-1.7,0.1-3.7-0.2-4.2,0.6
		c-0.7,1.1,0.3,2.8,1.1,3.5c0.9,0.8,2.8,0.9,3.4,1c4.4,0.6,13.5,0.1,13.5,0.1l-1.6,7c0,0-12.9,0.6-19.4-0.9
		c-1.3-0.3-2.5-0.9-3.3-1.8c-0.2-0.2-0.4-0.6-0.6-0.8s-0.7-1-0.9-1.5c-1.5-3.9,0.2-11.5,1.8-15.5c0.2-0.5,0.4-1.1,0.7-1.6
		c0.3-0.6,0.6-1.3,0.8-1.7c0.2-0.3,0.4-0.4,0.5-0.7c0.2-0.3,0.4-0.6,0.6-0.8c0.6-0.7,1.3-1.2,2.1-1.8c2.7-2,7.6-3.6,13.4-3
		c2.2,0.2,5.5,1,7.2,3.3C1788.2,361,1788.5,362.2,1788.7,363.1L1788.7,363.1z M1753.1,357.4h7.5c0,0-4.2,19.9-6.3,29.6h-8.6
		c-6,0-11.4,0.7-13.7-3.6c-2.2-4.2-0.1-11.1,0.9-15.8c0.7-3.3,2.2-10.1,2.2-10.1l7.8-0.1c0,0-2.2,10.6-3.1,15.9
		c-0.3,1.9-1,3.7-0.3,5.1c0.7,1.3,1.6,1.4,4.5,1.5c0.9,0,3.9,0,3.9,0L1753.1,357.4 M1717.9,371.7c0.8-2.8,1.9-5.8,1.8-8.4
		c-0.2-2.7-2.4-5.2-3.9-5.7c-4.4-1.6-8.5,0.6-10.1,2.4c-2.1,2.3-2.8,5-3.6,8.7c-0.6,2.7-1,5.6,0,7.8c1.8,3.8,7.4,2.9,13.4,3
		C1716.4,377.1,1717.2,374.4,1717.9,371.7L1717.9,371.7z M1728.3,360.7c0.9,6.2-2.4,13.1-4.7,19.1c2.3,0.2,4.3,0,4.5,0.1
		c0.2,0.2-1.6,7.2-2.1,7.2c-1.8,0-7.9,0.1-10.5,0.1c-8.3,0-16,0.5-20-3.6c-1.6-1.7-2.7-4.5-3-6.6c-0.4-3.4,0.1-7.1,0.9-10.1
		c0.7-2.8,1.6-5.4,3-7.8c3.5-6.1,9.5-10.6,19.7-9.5c2,0.2,4.8,1.1,6.6,2.1c0.1,0.1,0.5,0.4,0.6,0.5
		C1725.7,353.7,1727.9,357.3,1728.3,360.7L1728.3,360.7z M1691.7,357.4c-0.5,2.3-1,4.9-1.5,7.1h-8.4c0.6-2.5,1.1-5,1.8-7.2
		C1686.3,357.4,1688.7,357.4,1691.7,357.4 M1681.5,366.6h8.1c-1.1,5.8-3.1,15.2-4.8,21.8c-1,4.1-1.7,7.1-4.5,9.3
		c-0.2,0.2-0.4,0.1-0.6,0.3c-0.5,0.5-2.9,1.1-4.2,1.2c-2.1,0.2-4.5,0-7.1,0c0.7-2.5,1.5-5.5,2.1-7.7c6.4,0.8,6.5-5.2,7.8-11
		C1678.9,377,1681.1,368,1681.5,366.6"/>
	<g>
		<path class="st2" d="M1662.7,381.8l-0.2,0.4c-2.9,5.7-8.2,9.2-15.6,9.4c-3.5,0.1-6.8-0.8-9-1.8c-4.7-2.1-8.6-6-10.7-10.1
			c-3.1-6-3.6-14.2,2.8-20.4c0.1,0-0.8,1.3-0.7,1.3l-0.2,0.6c-4.6,14.4,9.6,26.8,23.4,25.4C1655.9,386.3,1660.1,384.5,1662.7,381.8"
			/>
		<path class="st2" d="M1654.3,375.9c3.5,0,7.1-1.6,9.3-3.9c-1.9,4.8-7.3,7.8-14.6,6.9c-6.1-0.8-11.9-7-12.5-13.1
			c-0.4-4.5,1.1-7.2,3.7-10.4c-0.9,1.7-1.2,3-1.3,3.8C1637.8,368.9,1646.6,375.8,1654.3,375.9"/>
		<path class="st2" d="M1663.2,363.8c-0.5,1.2-3.6,3.6-5,3.9c-5.4,1.2-8.9-1.4-10.7-4.4c-0.3-0.4-0.8-1.6-0.9-1.9
			c-0.7-2.4-0.4-6,1.7-7.9c-0.6,1.8-0.7,3.9-0.4,5.2c0.2,0.8,0.8,2.2,1.4,3.1c1.1,1.6,1.8,2,3.3,2.9c0.7,0.4,1.3,0.7,1.7,0.8
			C1655.7,365.9,1658.6,367,1663.2,363.8"/>
	</g>
</g>
<g class="st0">
	<path d="M1379,1004.2c-2.1-1.3-4-2.9-5.7-4.6c-5.1-5.1-6.2-11.3-3.7-17.9c1.7-4.8,3.7-9.4,5.7-14.1c1.9-4.7,3.8-9.3,6.1-13.8
		c1.9-3.8,4.3-7.4,7.6-10.2c3.7-3.2,8.1-4.5,12.9-4c3.9,0.4,7.5,1.6,11.1,2.9c7,2.5,13.7,5.5,20.1,9.2c5,2.9,9.9,6.1,13.6,10.7
		c2.5,3.1,3.6,6.6,3,10.6c-0.6,4.5-2.1,8.6-3.7,12.8c-2.6,6.4-5.4,12.5-8.8,18.5c-2.2,4-4.9,7.7-8.4,10.7
		c-5.5,4.7-11.7,6.7-18.8,4.5c-2.5-0.8-4.9-1.8-7.2-2.9c-3.5-1.6-6.9-3.4-10.3-5.1L1379,1004.2z M1396.8,1007.1
		c4.9,2.2,9.3,4.1,13.7,6c3.5,1.5,7,1.4,10.4-0.2c4.8-2.3,7.8-6.1,10.4-10.5c4.1-7.2,7.5-14.6,10.3-22.4c1-2.8,1.9-5.6,1.5-8.7
		c-0.1-0.8-0.1-1.6-0.2-2.5c-0.2-2.1-0.7-4.2-2.3-5.6c-3.5-3.2-7.5-5.8-11.8-7.9c-4.7-2.3-9.5-4.6-14.4-6.5
		c-3.7-1.4-7.6-2.5-11.4-3.5c-4.8-1.2-8.8,0.5-11.9,4.1c-3.3,3.8-5.5,8.2-7.4,12.9c-1.8,4.4-3.6,8.8-5.4,13.3
		c-1.1,2.8-2.4,5.6-3.3,8.5c-1.5,4.4-0.8,8.3,2.7,11.6c1.7,1.5,3.4,3,5.4,4.1C1387.9,1002.4,1392.6,1004.8,1396.8,1007.1z"/>
	<path d="M1394.4,989.7c1.1-1.3,2-2.4,2.9-3.4c6.4-7.1,12.7-14.1,19.1-21.2c0.5-0.6,1-1.2,1.5-1.7c1.1-1.2,2.9-1.4,3.9-0.3
		c1.1,1.1,1.1,2.8-0.1,4c-6.9,7.5-13.8,15-20.7,22.5c-0.9,1-1.8,1.9-2.8,2.8c-1.3,1.1-3.2,0.8-3.7-0.7
		C1394.3,991,1394.5,990.3,1394.4,989.7z"/>
	<path d="M1391.1,968.6c0.7,1.6,1.3,3,2,4.4c0.9,1.8,1.8,3.5,2.7,5.3c0.6,1.1,0.6,2.3-0.3,3.2c-1.1,1.3-3.2,1.2-4.1-0.3
		c-2.2-3.7-4.5-7.5-5.6-11.7c-0.3-0.9-0.2-1.9,0-2.9c0.2-1.1,1.1-1.8,2.2-2.1c4.4-1,8.8-2,13.2-3c0.9-0.2,1.8-0.2,2.7-0.2
		c1.4,0.1,2.4,1,2.4,2.2c0,1.2-0.8,1.9-2.2,2.3C1399.8,966.7,1395.6,967.7,1391.1,968.6z"/>
	<path d="M1428.1,986.9c-1.1-2.1-2-4.1-3.1-6.1c-0.8-1.5-1.6-3-2.3-4.5c-0.6-1.1-0.2-2.4,0.8-3c1-0.6,2.3-0.4,3.1,0.6
		c0.3,0.4,0.5,0.7,0.7,1.1c0.9,1.7,1.8,3.4,2.7,5.2c1.1,2.2,2.1,4.3,3.1,6.5c0.9,2,0.3,3.5-1.8,4c-5.3,1.3-10.5,2.5-15.9,3.7
		c-1.7,0.4-3-0.6-3.2-2.1c-0.2-1.4,0.8-2.6,2.5-2.9c4.1-0.8,8.3-1.5,12.4-2.3C1427.3,987.1,1427.7,987,1428.1,986.9z"/>
</g>
<g class="st0">
	<path d="M91.2,1011c-2.1-1.3-4-2.9-5.7-4.6c-5.1-5.1-6.2-11.3-3.7-17.9c1.7-4.8,3.7-9.4,5.7-14.1c1.9-4.7,3.8-9.3,6.1-13.8
		c1.9-3.8,4.3-7.4,7.6-10.2c3.7-3.2,8.1-4.5,12.9-4c3.9,0.4,7.5,1.6,11.1,2.9c7,2.5,13.7,5.5,20.1,9.2c5,2.9,9.9,6.1,13.6,10.7
		c2.5,3.1,3.6,6.6,3,10.6c-0.6,4.5-2.1,8.6-3.7,12.8c-2.6,6.4-5.4,12.5-8.8,18.5c-2.2,4-4.9,7.7-8.4,10.7
		c-5.5,4.7-11.7,6.7-18.8,4.5c-2.5-0.8-4.9-1.8-7.2-2.9c-3.5-1.6-6.9-3.4-10.3-5.1L91.2,1011z M109,1013.9c4.9,2.2,9.3,4.1,13.7,6
		c3.5,1.5,7,1.4,10.4-0.2c4.8-2.3,7.8-6.1,10.4-10.6c4.1-7.2,7.5-14.6,10.3-22.4c1-2.8,1.9-5.6,1.5-8.7c-0.1-0.8-0.1-1.6-0.2-2.5
		c-0.2-2.1-0.7-4.2-2.3-5.6c-3.5-3.2-7.5-5.8-11.8-7.9c-4.7-2.3-9.5-4.6-14.4-6.5c-3.7-1.4-7.6-2.5-11.4-3.5
		c-4.8-1.2-8.8,0.5-11.9,4.1c-3.3,3.8-5.5,8.2-7.4,12.9c-1.8,4.4-3.6,8.8-5.4,13.3c-1.1,2.8-2.4,5.6-3.3,8.5
		c-1.5,4.4-0.8,8.3,2.7,11.6c1.7,1.5,3.4,3,5.4,4.1C100.1,1009.2,104.8,1011.6,109,1013.9z"/>
	<path d="M106.6,996.5c1.1-1.3,2-2.4,2.9-3.4c6.4-7.1,12.7-14.1,19.1-21.2c0.5-0.6,1-1.2,1.5-1.7c1.1-1.2,2.9-1.4,3.9-0.3
		c1.1,1.1,1.1,2.8-0.1,4c-6.9,7.5-13.8,15-20.7,22.5c-0.9,1-1.8,1.9-2.8,2.8c-1.3,1.1-3.2,0.8-3.7-0.7
		C106.5,997.8,106.7,997,106.6,996.5z"/>
	<path d="M103.3,975.4c0.7,1.6,1.3,3,2,4.4c0.9,1.8,1.8,3.5,2.7,5.3c0.6,1.1,0.6,2.3-0.3,3.2c-1.1,1.3-3.2,1.2-4.1-0.3
		c-2.2-3.7-4.5-7.5-5.6-11.7c-0.3-0.9-0.2-1.9,0-2.9c0.2-1.1,1.1-1.8,2.2-2.1c4.4-1,8.8-2,13.2-3c0.9-0.2,1.8-0.2,2.7-0.2
		c1.4,0.1,2.4,1,2.4,2.2s-0.8,1.9-2.2,2.3C112,973.5,107.8,974.5,103.3,975.4z"/>
	<path d="M140.3,993.7c-1.1-2.1-2-4.1-3.1-6.1c-0.8-1.5-1.6-3-2.3-4.5c-0.6-1.1-0.2-2.4,0.8-3c1-0.6,2.3-0.4,3.1,0.6
		c0.3,0.4,0.5,0.7,0.7,1.1c0.9,1.7,1.8,3.4,2.7,5.2c1.1,2.2,2.1,4.3,3.1,6.5c0.9,2,0.3,3.5-1.8,4c-5.3,1.3-10.6,2.5-15.9,3.7
		c-1.7,0.4-3-0.6-3.2-2.1c-0.2-1.4,0.8-2.6,2.5-2.9c4.1-0.8,8.3-1.5,12.4-2.3C139.5,993.9,139.8,993.8,140.3,993.7z"/>
</g>
</svg>
