<?xml version="1.0" encoding="utf-8"?>
<!-- Generator: Adobe Illustrator 28.0.0, SVG Export Plug-In . SVG Version: 6.00 Build 0)  -->
<svg version="1.1" id="Layer_1" xmlns="http://www.w3.org/2000/svg" xmlns:xlink="http://www.w3.org/1999/xlink" x="0px" y="0px"
	 viewBox="0 0 800 800" style="enable-background:new 0 0 800 800;" xml:space="preserve">
<style type="text/css">
	.st0{fill:#05C560;}
	.st1{fill-rule:evenodd;clip-rule:evenodd;fill:#05C560;}
</style>
<path class="st0" d="M300,607.9c-13.8,0-25,11.2-25,25c0,13.8,11.2,25,25,25h200c13.8,0,25-11.2,25-25c0-13.8-11.2-25-25-25H300z"/>
<path class="st1" d="M400,74.5c-23.6,0-45,6.8-68.3,18.1c-22.5,10.9-48.5,27.1-80.9,47.2l-68.9,42.8c-30.7,19.1-55.3,34.3-74.2,48.8
	c-19.6,15-34.7,30.3-45.6,50.2c-10.9,19.8-15.8,41-18.1,65.9c-2.3,24.2-2.3,53.8-2.3,90.9v53.8c0,63.5,0,113.6,5.1,152.7
	c5.2,40.2,16.2,72.6,41,98.3c24.9,25.8,56.6,37.3,95.8,42.7c38,5.3,86.6,5.3,147.8,5.3h137.2c61.2,0,109.8,0,147.8-5.3
	c39.2-5.5,70.9-17,95.8-42.7c24.8-25.6,35.8-58.1,41-98.3c5.1-39.2,5.1-89.3,5.1-152.7v-53.8c0-37.1,0-66.7-2.3-90.9
	c-2.3-25-7.2-46.1-18.1-65.9c-10.9-19.9-26-35.2-45.6-50.2c-18.9-14.5-43.5-29.8-74.2-48.8l-68.9-42.8
	c-32.5-20.1-58.4-36.3-80.9-47.2C445,81.3,423.6,74.5,400,74.5z M276,183c33.9-21,57.7-35.8,77.6-45.4c19.4-9.4,33.1-13,46.5-13
	c13.3,0,27.1,3.6,46.4,13c19.9,9.7,43.7,24.4,77.6,45.4l66.7,41.4c32,19.9,54.5,33.9,71.3,46.7c16.3,12.5,25.7,22.8,32.1,34.5
	c6.4,11.8,10.2,25.5,12.2,46.6c2,21.6,2.1,48.8,2.1,87.4v50.7c0,65.7,0,112.5-4.7,148.1c-4.5,34.9-13.1,55.2-27.4,70
	c-14.1,14.6-33.4,23.3-66.8,28c-34.2,4.8-79.3,4.8-142.9,4.8H333.3c-63.6,0-108.7-0.1-142.9-4.8c-33.4-4.6-52.6-13.3-66.8-28
	c-14.3-14.7-22.8-35-27.4-70c-4.6-35.6-4.7-82.4-4.7-148.1v-50.7c0-38.6,0-65.8,2.1-87.4c2-21.1,5.7-34.8,12.2-46.6
	c6.4-11.7,15.8-22,32.1-34.5c16.8-12.8,39.3-26.8,71.3-46.7L276,183z"/>
</svg>
