<?xml version="1.0" encoding="utf-8"?>
<!-- Generator: Adobe Illustrator 28.0.0, SVG Export Plug-In . SVG Version: 6.00 Build 0)  -->
<svg version="1.1" id="Layer_1" xmlns="http://www.w3.org/2000/svg" xmlns:xlink="http://www.w3.org/1999/xlink" x="0px" y="0px"
	 viewBox="0 0 800 800" style="enable-background:new 0 0 800 800;" xml:space="preserve">
<style type="text/css">
	.st0{fill-rule:evenodd;clip-rule:evenodd;fill:#05C560;}
	.st1{fill:#05C560;}
</style>
<g>
	<path class="st0" d="M400,7.7c-25.8,0-49.3,7.4-74.8,19.8c-24.6,12-53.1,29.6-88.6,51.7L161.2,126c-33.6,20.9-60.5,37.6-81.3,53.5
		c-21.5,16.5-38,33.2-49.9,55c-11.9,21.7-17.3,44.9-19.8,72.2c-2.5,26.5-2.5,58.9-2.5,99.5v58.8c0,69.5,0,124.3,5.6,167.2
		c5.7,44,17.7,79.5,44.9,107.6c27.3,28.2,62,40.8,104.9,46.8c41.6,5.8,94.8,5.8,161.8,5.8h150.2c67,0,120.2,0,161.8-5.8
		c43-6,77.7-18.6,104.9-46.8c27.1-28.1,39.2-63.6,44.9-107.6c5.6-42.9,5.6-97.7,5.6-167.2v-58.8c0-40.6,0-73-2.5-99.5
		c-2.6-27.3-7.9-50.5-19.8-72.2c-11.9-21.8-28.4-38.5-49.9-55c-20.7-15.9-47.7-32.6-81.3-53.5l-75.4-46.8
		c-35.5-22-64-39.7-88.6-51.7C449.3,15.1,425.8,7.7,400,7.7z M264.2,126.5c37.1-23,63.1-39.1,84.9-49.7
		c21.2-10.3,36.3-14.3,50.8-14.3c14.6,0,29.6,4,50.8,14.3c21.8,10.6,47.8,26.7,84.9,49.7l73,45.3c35.1,21.8,59.7,37.1,78,51.1
		c17.9,13.7,28.1,25,35.2,37.8c7.1,12.9,11.2,27.9,13.3,51c2.2,23.6,2.2,53.4,2.2,95.7v55.5c0,71.9-0.1,123.2-5.1,162.1
		c-5,38.2-14.3,60.4-29.9,76.6c-15.5,16-36.6,25.5-73.1,30.6c-37.4,5.2-86.8,5.3-156.4,5.3H327c-69.6,0-119-0.1-156.4-5.3
		c-36.5-5.1-57.6-14.6-73.1-30.6c-15.6-16.1-25-38.3-29.9-76.6c-5.1-38.9-5.1-90.2-5.1-162.1v-55.5c0-42.3,0-72.1,2.2-95.7
		c2.2-23.1,6.3-38.1,13.3-51c7-12.8,17.3-24.1,35.2-37.8c18.4-14.1,43-29.4,78-51.1L264.2,126.5z"/>
	<g>
		<path class="st1" d="M290.5,372.6c-15.1,0-27.4,12.3-27.4,27.4s12.3,27.4,27.4,27.4h218.9c15.1,0,27.4-12.3,27.4-27.4
			s-12.3-27.4-27.4-27.4H290.5z"/>
	</g>
</g>
</svg>
