<?xml version="1.0" encoding="utf-8"?>
<!-- Generator: Adobe Illustrator 28.0.0, SVG Export Plug-In . SVG Version: 6.00 Build 0)  -->
<svg version="1.1" id="Layer_1" xmlns="http://www.w3.org/2000/svg" xmlns:xlink="http://www.w3.org/1999/xlink" x="0px" y="0px"
	 viewBox="0 0 1020.3 336.9" style="enable-background:new 0 0 1020.3 336.9;" xml:space="preserve">
<style type="text/css">
	.st0{fill:#FFFFFF;}
</style>
<g>
	<g>
		<path class="st0" d="M365.6,209.2c0,7.8-1,14.2-3,19.1c-2,4.9-5.1,9-9.3,12.2c-4.2,3.2-10.1,6.3-17.6,9.2l-3.1-8.4
			c5.9-2.6,10.4-5.2,13.4-8c3.1-2.7,5.2-6,6.3-9.8c1.2-3.8,1.7-8.7,1.7-14.9V95.5h11.5v113.7H365.6z"/>
		<path class="st0" d="M471.9,138.2c7.5,9.1,11.2,21.9,11.2,38.2c0,16.2-3.8,29-11.4,38.4c-7.6,9.4-18,14.1-31.1,14.1
			c-13.3,0-23.7-4.6-31.1-13.9c-7.5-9.3-11.2-22-11.2-38.2c0-10.6,1.7-19.9,5.2-27.8c3.5-7.9,8.4-14,14.8-18.2
			c6.4-4.2,13.9-6.3,22.6-6.3C454,124.5,464.4,129,471.9,138.2z M418.1,144.8c-5.4,7.3-8.1,18-8.1,32c0,13.9,2.7,24.5,8,31.8
			s12.8,10.9,22.5,10.9s17.3-3.6,22.7-10.9c5.4-7.3,8.1-18,8.1-32.2c0-13.9-2.7-24.5-8-31.7s-12.9-10.8-22.7-10.8
			C431,133.9,423.5,137.5,418.1,144.8z"/>
		<path class="st0" d="M580.6,132.6c4.9,5.4,7.3,12.9,7.3,22.5v71.7h-11.1v-70.1c0-15.5-6.3-23.2-19-23.2c-6.4,0-12,1.8-17,5.3
			c-4.9,3.5-9.6,8.7-14.1,15.4v72.7h-11.1V85.7l11.1-1.3v58.8c8.9-12.5,20-18.8,33.2-18.8C568.9,124.5,575.8,127.2,580.6,132.6z"/>
		<path class="st0" d="M692.7,132.5c4.8,5.4,7.2,12.9,7.2,22.6v71.7h-11.1v-70.1c0-8.1-1.6-13.9-4.8-17.6c-3.2-3.7-7.9-5.6-14.2-5.6
			c-6.4,0-12,1.8-17,5.3c-4.9,3.5-9.6,8.7-14.1,15.4v72.7h-11.1V126.6h9.6l1.1,17.1c4.1-6,8.9-10.7,14.6-14.1
			c5.6-3.4,11.9-5.1,19-5.1C681,124.5,687.9,127.1,692.7,132.5z"/>
		<path class="st0" d="M781.2,127.2c5.1,1.9,10.1,4.6,15,8.3l-5.2,7.3c-4.6-3.2-8.9-5.5-13-7s-8.6-2.2-13.4-2.2
			c-6.6,0-12,1.5-16.1,4.6s-6.1,7.2-6.1,12.3c0,4.9,1.8,8.6,5.3,11.3s9.9,5.2,19.1,7.7c11.4,2.9,19.6,6.6,24.6,11.1
			s7.6,10.9,7.6,19.2c0,8.9-3.5,16-10.4,21.3c-6.9,5.2-15.5,7.9-25.9,7.9c-7.7,0-14.4-1.1-20.1-3.4c-5.7-2.2-11-5.4-15.7-9.5
			l6.1-7.1c4.5,3.6,9,6.2,13.7,8c4.7,1.7,9.9,2.6,15.8,2.6c7.4,0,13.4-1.7,17.9-5.1c4.5-3.4,6.8-8.1,6.8-14.1c0-4.1-0.8-7.4-2.3-10
			s-4.2-4.8-7.9-6.6c-3.7-1.9-9.1-3.7-16.3-5.7c-10.6-2.8-18.2-6.3-22.9-10.5s-7-9.8-7-16.9c0-5,1.5-9.5,4.4-13.5s6.9-7.2,12-9.4
			c5-2.2,10.7-3.4,17-3.4C770.4,124.5,776,125.4,781.2,127.2z"/>
		<path class="st0" d="M894.2,138.2c7.5,9.1,11.2,21.9,11.2,38.2c0,16.2-3.8,29-11.4,38.4c-7.6,9.4-18,14.1-31.2,14.1
			c-13.3,0-23.7-4.6-31.1-13.9c-7.5-9.3-11.2-22-11.2-38.2c0-10.6,1.7-19.9,5.2-27.8c3.5-7.9,8.4-14,14.8-18.2
			c6.4-4.2,13.9-6.3,22.6-6.3C876.3,124.5,886.7,129,894.2,138.2z M840.4,144.8c-5.4,7.3-8.1,18-8.1,32c0,13.9,2.7,24.5,8,31.8
			s12.8,10.9,22.5,10.9s17.3-3.6,22.7-10.9c5.4-7.3,8.1-18,8.1-32.2c0-13.9-2.7-24.5-8-31.7s-12.9-10.8-22.7-10.8
			C853.3,133.9,845.8,137.5,840.4,144.8z"/>
		<path class="st0" d="M1003,132.5c4.8,5.4,7.2,12.9,7.2,22.6v71.7h-11.1v-70.1c0-8.1-1.6-13.9-4.8-17.6c-3.2-3.7-7.9-5.6-14.2-5.6
			c-6.4,0-12,1.8-17,5.3c-4.9,3.5-9.6,8.7-14.1,15.4v72.7h-11.1V126.6h9.6l1.1,17.1c4.1-6,8.9-10.7,14.6-14.1
			c5.6-3.4,11.9-5.1,19-5.1C991.3,124.5,998.2,127.1,1003,132.5z"/>
	</g>
	<g>
		<path class="st0" d="M161.2,290.4c-21,0-45.9-8.8-65.9-17l10.5-25.7c22.1,9.1,39.8,14.1,52.4,14.8c7.5,0.5,12.9-0.7,14.9-3.1
			c0.9-1.1,7.8-11.6-12.5-52.9c-11.8-24.1-26.6-45.3-26.7-45.5l22.8-15.9c0.6,0.9,16,23,28.8,48.9c19.4,39.3,22.5,66.4,9.4,82.7
			C186.8,286.7,174.9,290.4,161.2,290.4z"/>
		<path class="st0" d="M265.7,306.7c-14.2,16.6-36.2,24.4-66.5,23.4c-7-0.2-14.5-0.9-22.4-2.1c-0.5-0.1-0.9-0.1-1.4-0.2
			c-34.3-5.3-76.8-19.5-127.9-42.4l3.9-8.6c1.5,0.6,3,1.1,4.5,1.6c38.3,13.6,70.2,21.2,95.1,22.7c9.8,0.6,18.4,0.2,25.9-1.1
			c5,0.9,9.8,1.5,14.4,1.9c13.4,1.2,24.6,0.6,33.7-1.8c1.3-0.4,2.6-0.7,3.8-1.2c6.6-2.3,11.9-5.7,15.8-10.3
			c19-22.1,10.7-75.7-23.3-150.9c-27.4-60.8-62.2-114.5-62.5-115.1l23.3-15.1c1.5,2.3,36.2,55.8,64.5,118.5
			c16.8,37.3,27.9,70,32.8,97.3C286,260.3,281.4,288.4,265.7,306.7z"/>
		<path class="st0" d="M229.4,298.1c-0.2,0.3-0.3,0.5-0.5,0.8c-1,1.6-2.1,3.1-3.3,4.5c-10.3,12.8-25.2,20.9-44.8,24
			c-1.3,0.2-2.5,0.4-3.8,0.5c-5.3,0.7-11,1-17,1c-37.7,0-88.5-13.2-153.1-39.7l10.5-25.7c11.8,4.9,23.2,9.2,34.1,13.2
			c1.5,0.6,3,1.1,4.5,1.6c38.3,13.6,70.2,21.2,95.1,22.7c9.8,0.6,18.4,0.2,25.9-1.1c1-0.2,2-0.4,2.9-0.6
			c10.8-2.3,18.8-6.8,24.1-13.3c18.2-22.8,8.2-76.1-28.2-150.1c-29.4-59.8-66-112.4-66.4-112.9l22.8-15.9
			c1.5,2.2,38,54.6,68.4,116.3c18.1,36.7,30.2,69.1,36,96.2C243.6,253.1,241.2,279.4,229.4,298.1z"/>
	</g>
</g>
</svg>
